<svg width="48" height="44" viewBox="0 0 48 44" fill="none" xmlns="http://www.w3.org/2000/svg">
<path d="M4.5 7.54239C4.5 5.15389 6.6541 3 9.5917 3H38.4083C41.3459 3 43.5 5.15389 43.5 7.54239V37.4576C43.5 39.8461 41.3459 42 38.4083 42H9.59169C6.6541 42 4.5 39.8461 4.5 37.4576V7.54239Z" fill="white" stroke="#4E4E4E" stroke-width="3"/>
<rect x="1.5" y="2" width="45" height="14" rx="4.5" fill="white" stroke="#4E4E4E" stroke-width="3"/>
<path d="M24.8329 40.6636H22.8625C22.6076 40.6636 22.36 40.564 22.174 40.3896C16.0346 34.634 12.5593 32.26 12.5593 27.514C12.5593 23.5862 15.5295 20.5 19.3098 20.5C21.0335 20.5 22.7012 21.173 23.9839 22.2909C24.4597 22.7056 25.206 22.7056 25.6818 22.2909C26.9645 21.173 28.6322 20.5 30.3559 20.5C34.1362 20.5 37.1064 23.5862 37.1064 27.514C37.1064 32.2599 33.8495 34.6216 27.717 40.3887C27.531 40.5636 27.283 40.6636 27.0277 40.6636H24.8329Z" fill="#E15C6C"/>
</svg>
