<svg width="480" height="170" viewBox="0 0 480 170" fill="none" xmlns="http://www.w3.org/2000/svg">
<path d="M30.5625 123.25C26.75 123.25 23.4062 122.812 20.5312 121.938C17.6875 121.031 15.2656 119.797 13.2656 118.234C11.2656 116.672 9.67188 114.812 8.48438 112.656C7.29688 110.469 6.48438 108.078 6.04688 105.484H16.875C17.25 107.078 17.7969 108.562 18.5156 109.938C19.2344 111.312 20.1406 112.516 21.2344 113.547C22.3594 114.547 23.6719 115.344 25.1719 115.938C26.7031 116.5 28.4688 116.781 30.4688 116.781C31.7812 116.781 33.0781 116.641 34.3594 116.359C35.6719 116.078 36.8438 115.625 37.875 115C38.9062 114.344 39.7344 113.516 40.3594 112.516C40.9844 111.484 41.2969 110.219 41.2969 108.719C41.2969 106.844 40.8125 105.172 39.8438 103.703C38.875 102.234 37.5938 100.906 36 99.7188C34.4062 98.5 32.5938 97.375 30.5625 96.3438C28.5312 95.3125 26.4531 94.2812 24.3281 93.25C22.2031 92.1875 20.125 91.0781 18.0938 89.9219C16.0625 88.7656 14.25 87.4844 12.6562 86.0781C11.0625 84.6406 9.78125 83.0312 8.8125 81.25C7.84375 79.4375 7.35938 77.375 7.35938 75.0625C7.35938 72.5312 7.90625 70.2031 9 68.0781C10.125 65.9219 11.7344 64.0625 13.8281 62.5C15.9219 60.9062 18.4844 59.6719 21.5156 58.7969C24.5469 57.8906 28 57.4375 31.875 57.4375C35.0625 57.4375 37.9531 57.875 40.5469 58.75C43.1406 59.625 45.4219 60.8438 47.3906 62.4062C49.3906 63.9375 51.0625 65.75 52.4062 67.8438C53.75 69.9062 54.7812 72.125 55.5 74.5H45.7031C45.1406 73 44.4844 71.5625 43.7344 70.1875C42.9844 68.8125 42.0625 67.6094 40.9688 66.5781C39.875 65.5469 38.5469 64.7344 36.9844 64.1406C35.4219 63.5156 33.5625 63.2031 31.4062 63.2031C29.375 63.2031 27.6562 63.4688 26.25 64C24.875 64.5312 23.7656 65.2188 22.9219 66.0625C22.0781 66.875 21.4688 67.7969 21.0938 68.8281C20.7188 69.8281 20.5312 70.8125 20.5312 71.7812C20.5312 73.4688 21.0312 75 22.0312 76.375C23.0312 77.75 24.3438 79.0312 25.9688 80.2188C27.625 81.4062 29.5 82.5469 31.5938 83.6406C33.6875 84.7031 35.8125 85.7812 37.9688 86.875C40.1562 87.9688 42.2969 89.125 44.3906 90.3438C46.4844 91.5312 48.3438 92.8438 49.9688 94.2812C51.625 95.7188 52.9531 97.3125 53.9531 99.0625C54.9531 100.812 55.4531 102.781 55.4531 104.969C55.4531 107.562 54.9219 109.969 53.8594 112.188C52.7969 114.406 51.2188 116.344 49.125 118C47.0312 119.625 44.4219 120.906 41.2969 121.844C38.2031 122.781 34.625 123.25 30.5625 123.25ZM129.328 89.7812C129.328 88.7188 129.188 87.7188 128.906 86.7812C128.656 85.8125 128.297 84.9844 127.828 84.2969C127.359 83.5781 126.812 83.0156 126.188 82.6094C125.562 82.1719 124.891 81.9531 124.172 81.9531C123.328 81.9531 122.453 82.0938 121.547 82.375C120.641 82.6562 119.734 83.0312 118.828 83.5C117.953 83.9688 117.125 84.5156 116.344 85.1406C115.562 85.7656 114.875 86.4219 114.281 87.1094V122.312H99.8906V89.7812C99.8906 88.7188 99.75 87.7188 99.4688 86.7812C99.1875 85.8125 98.7969 84.9844 98.2969 84.2969C97.8281 83.5781 97.2812 83.0156 96.6562 82.6094C96.0312 82.1719 95.3906 81.9531 94.7344 81.9531C93.9531 81.9531 93.1094 82.0938 92.2031 82.375C91.3281 82.6562 90.4375 83.0312 89.5312 83.5C88.6562 83.9688 87.7969 84.5156 86.9531 85.1406C86.1406 85.7656 85.4062 86.4219 84.75 87.1094V122.312H70.2188V78.6719L80.3906 73.3281H84.75V78.5312C87.0312 76.9688 89.3906 75.7344 91.8281 74.8281C94.2969 73.9219 96.6562 73.4688 98.9062 73.4688C100.156 73.4688 101.406 73.6094 102.656 73.8906C103.938 74.1719 105.156 74.5781 106.312 75.1094C107.5 75.6094 108.594 76.2344 109.594 76.9844C110.594 77.7031 111.453 78.5312 112.172 79.4688C113.266 78.5938 114.469 77.7812 115.781 77.0312C117.094 76.2812 118.469 75.6562 119.906 75.1562C121.375 74.625 122.859 74.2188 124.359 73.9375C125.891 73.625 127.406 73.4688 128.906 73.4688C130.938 73.4688 132.859 73.8594 134.672 74.6406C136.516 75.4219 138.125 76.5 139.5 77.875C140.875 79.25 141.969 80.8594 142.781 82.7031C143.594 84.5469 144 86.5312 144 88.6562V122.312H129.328V89.7812ZM160.172 78.6719L170.391 73.3281H174.75V122.312H160.172V78.6719ZM159.562 57.5781C159.562 56.6094 159.766 55.6875 160.172 54.8125C160.578 53.9375 161.141 53.1875 161.859 52.5625C162.578 51.9375 163.406 51.4375 164.344 51.0625C165.281 50.6875 166.297 50.5 167.391 50.5C168.484 50.5 169.5 50.6875 170.438 51.0625C171.406 51.4375 172.234 51.9375 172.922 52.5625C173.641 53.1875 174.203 53.9375 174.609 54.8125C175.016 55.6875 175.219 56.6094 175.219 57.5781C175.219 58.5469 175.016 59.4688 174.609 60.3438C174.203 61.1875 173.641 61.9219 172.922 62.5469C172.234 63.1719 171.406 63.6719 170.438 64.0469C169.5 64.4219 168.484 64.6094 167.391 64.6094C166.297 64.6094 165.281 64.4219 164.344 64.0469C163.406 63.6719 162.578 63.1719 161.859 62.5469C161.141 61.9219 160.578 61.1875 160.172 60.3438C159.766 59.4688 159.562 58.5469 159.562 57.5781ZM203.156 122.312H188.672V55.1875L198.797 49.8438H203.156V122.312ZM238.688 123.391C235.281 123.391 232.078 122.766 229.078 121.516C226.078 120.234 223.469 118.531 221.25 116.406C219.031 114.25 217.266 111.766 215.953 108.953C214.672 106.109 214.031 103.109 214.031 99.9531C214.031 96.1719 214.625 92.6719 215.812 89.4531C217 86.2031 218.688 83.3906 220.875 81.0156C223.062 78.6406 225.672 76.7969 228.703 75.4844C231.766 74.1406 235.172 73.4688 238.922 73.4688C242.266 73.4688 245.328 74 248.109 75.0625C250.891 76.125 253.266 77.5781 255.234 79.4219C257.234 81.2656 258.781 83.4375 259.875 85.9375C260.969 88.4375 261.516 91.1094 261.516 93.9531H228.281C228.406 96.6094 228.797 99.1406 229.453 101.547C230.141 103.953 231.047 106.078 232.172 107.922C233.297 109.734 234.609 111.188 236.109 112.281C237.641 113.344 239.328 113.875 241.172 113.875C242.766 113.875 244.328 113.609 245.859 113.078C247.422 112.516 248.859 111.766 250.172 110.828C251.484 109.859 252.625 108.75 253.594 107.5C254.562 106.219 255.266 104.844 255.703 103.375L263.109 104.547C262.359 107.141 261.156 109.578 259.5 111.859C257.875 114.141 255.953 116.141 253.734 117.859C251.547 119.578 249.156 120.938 246.562 121.938C243.969 122.906 241.344 123.391 238.688 123.391ZM244.828 88.9844C244.703 87.5781 244.391 86.2969 243.891 85.1406C243.422 83.9531 242.812 82.9375 242.062 82.0938C241.312 81.25 240.438 80.6094 239.438 80.1719C238.438 79.7031 237.359 79.4688 236.203 79.4688C235.297 79.4688 234.406 79.7031 233.531 80.1719C232.656 80.6094 231.859 81.25 231.141 82.0938C230.453 82.9062 229.859 83.9062 229.359 85.0938C228.891 86.25 228.578 87.5469 228.422 88.9844H244.828ZM274.688 58.75H301.969C305.625 58.75 308.969 59.1406 312 59.9219C315.062 60.7031 317.688 61.8125 319.875 63.25C322.062 64.6562 323.766 66.3594 324.984 68.3594C326.203 70.3594 326.812 72.5781 326.812 75.0156C326.812 76.5156 326.641 77.9062 326.297 79.1875C325.984 80.4688 325.453 81.6719 324.703 82.7969C323.953 83.9219 322.953 85 321.703 86.0312C320.484 87.0625 318.969 88.1094 317.156 89.1719C319.031 89.7656 320.75 90.5625 322.312 91.5625C323.875 92.5312 325.219 93.6875 326.344 95.0312C327.5 96.3438 328.391 97.8125 329.016 99.4375C329.672 101.031 330 102.734 330 104.547C330 107.047 329.422 109.375 328.266 111.531C327.141 113.688 325.516 115.562 323.391 117.156C321.297 118.75 318.766 120.016 315.797 120.953C312.859 121.859 309.594 122.312 306 122.312H274.688V58.75ZM290.297 86.3125H300.562C302.219 86.3125 303.688 86.0625 304.969 85.5625C306.281 85.0312 307.375 84.3125 308.25 83.4062C309.156 82.4688 309.844 81.3594 310.312 80.0781C310.781 78.7969 311.016 77.4062 311.016 75.9062C311.016 74.25 310.719 72.7344 310.125 71.3594C309.531 69.9844 308.625 68.8125 307.406 67.8438C306.188 66.8438 304.641 66.0781 302.766 65.5469C300.891 64.9844 298.672 64.7031 296.109 64.7031H290.297V86.3125ZM290.297 115.797H298.922C301.453 115.797 303.641 115.531 305.484 115C307.328 114.438 308.844 113.688 310.031 112.75C311.25 111.781 312.141 110.641 312.703 109.328C313.297 107.984 313.594 106.531 313.594 104.969C313.594 103.188 313.328 101.547 312.797 100.047C312.266 98.5156 311.391 97.1875 310.172 96.0625C308.984 94.9375 307.406 94.0625 305.438 93.4375C303.5 92.8125 301.125 92.5 298.312 92.5H290.297V115.797ZM342.609 78.6719L352.828 73.3281H357.188V122.312H342.609V78.6719ZM342 57.5781C342 56.6094 342.203 55.6875 342.609 54.8125C343.016 53.9375 343.578 53.1875 344.297 52.5625C345.016 51.9375 345.844 51.4375 346.781 51.0625C347.719 50.6875 348.734 50.5 349.828 50.5C350.922 50.5 351.938 50.6875 352.875 51.0625C353.844 51.4375 354.672 51.9375 355.359 52.5625C356.078 53.1875 356.641 53.9375 357.047 54.8125C357.453 55.6875 357.656 56.6094 357.656 57.5781C357.656 58.5469 357.453 59.4688 357.047 60.3438C356.641 61.1875 356.078 61.9219 355.359 62.5469C354.672 63.1719 353.844 63.6719 352.875 64.0469C351.938 64.4219 350.922 64.6094 349.828 64.6094C348.734 64.6094 347.719 64.4219 346.781 64.0469C345.844 63.6719 345.016 63.1719 344.297 62.5469C343.578 61.9219 343.016 61.1875 342.609 60.3438C342.203 59.4688 342 58.5469 342 57.5781ZM384.797 90.7656L403.641 74.3125H414.141L393.141 92.6875L418.641 122.312H401.438L384.797 103.047V122.312H370.172V55.1875L380.438 49.8438H384.797V90.7656ZM446.062 123.391C442.656 123.391 439.453 122.766 436.453 121.516C433.453 120.234 430.844 118.531 428.625 116.406C426.406 114.25 424.641 111.766 423.328 108.953C422.047 106.109 421.406 103.109 421.406 99.9531C421.406 96.1719 422 92.6719 423.188 89.4531C424.375 86.2031 426.062 83.3906 428.25 81.0156C430.438 78.6406 433.047 76.7969 436.078 75.4844C439.141 74.1406 442.547 73.4688 446.297 73.4688C449.641 73.4688 452.703 74 455.484 75.0625C458.266 76.125 460.641 77.5781 462.609 79.4219C464.609 81.2656 466.156 83.4375 467.25 85.9375C468.344 88.4375 468.891 91.1094 468.891 93.9531H435.656C435.781 96.6094 436.172 99.1406 436.828 101.547C437.516 103.953 438.422 106.078 439.547 107.922C440.672 109.734 441.984 111.188 443.484 112.281C445.016 113.344 446.703 113.875 448.547 113.875C450.141 113.875 451.703 113.609 453.234 113.078C454.797 112.516 456.234 111.766 457.547 110.828C458.859 109.859 460 108.75 460.969 107.5C461.938 106.219 462.641 104.844 463.078 103.375L470.484 104.547C469.734 107.141 468.531 109.578 466.875 111.859C465.25 114.141 463.328 116.141 461.109 117.859C458.922 119.578 456.531 120.938 453.938 121.938C451.344 122.906 448.719 123.391 446.062 123.391ZM452.203 88.9844C452.078 87.5781 451.766 86.2969 451.266 85.1406C450.797 83.9531 450.188 82.9375 449.438 82.0938C448.688 81.25 447.812 80.6094 446.812 80.1719C445.812 79.7031 444.734 79.4688 443.578 79.4688C442.672 79.4688 441.781 79.7031 440.906 80.1719C440.031 80.6094 439.234 81.25 438.516 82.0938C437.828 82.9062 437.234 83.9062 436.734 85.0938C436.266 86.25 435.953 87.5469 435.797 88.9844H452.203Z" fill="#35A7FF"/>
<path d="M440.65 23.6438C433.787 12.5818 446.777 19.5051 443.483 23.1517C440.542 26.4083 432.812 17.0007 442.539 17.0007" stroke="#FF5964" stroke-width="5" stroke-linecap="round"/>
<path d="M465.05 8.40685C464.804 7.79243 462.514 3.46041 464.064 3.05656C464.843 2.85369 465.768 3.21645 466.346 3.827C467.409 4.94779 468.105 8.80056 466.766 9.94774C464.241 12.1111 461.805 5.7681 464.393 4.55464" stroke="#FF5964" stroke-width="5" stroke-linecap="round"/>
<path d="M439.356 44.0943C441.707 54.9726 455.925 55.5271 464.324 51.8472C474.858 47.2311 478.27 34.5935 477.088 23.8753" stroke="#FF5964" stroke-width="5" stroke-linecap="round"/>
</svg>
