<svg width="377" height="164" viewBox="0 0 377 164" fill="none" xmlns="http://www.w3.org/2000/svg">
<path d="M9.28974 91.1683C9.12664 87.5783 9.37646 84.1259 10.0392 80.8111C10.7318 77.4638 11.7783 74.3349 13.179 71.4246C14.5781 68.4831 16.3023 65.8083 18.3514 63.4003C20.4302 60.9597 22.7745 58.8512 25.384 57.0747C27.9922 55.2669 30.8366 53.8395 33.9172 52.7924C37.0291 51.7438 40.3176 51.1408 43.7828 50.9834C46.53 50.8586 48.9422 50.9367 51.0196 51.2177C53.1268 51.4661 54.958 51.8365 56.5132 52.3289C58.0982 52.7887 59.4207 53.323 60.4807 53.9317C61.5719 54.5391 62.4743 55.1237 63.1881 55.6857C63.1568 55.6871 63.1462 55.7971 63.1561 56.0156C63.1774 56.4838 63.2476 57.3409 63.3668 58.5868C63.5172 59.8312 63.6739 61.2162 63.8371 62.7416C64.0314 64.2656 64.196 65.8222 64.3308 67.4115C64.4953 68.9681 64.6039 70.324 64.6563 71.479C64.6648 71.6664 64.6123 71.8877 64.4988 72.1431C64.3839 72.3673 64.0767 72.4908 63.5772 72.5135C63.2962 72.5262 62.9507 72.495 62.5406 72.4198C61.8765 72.2623 61.0301 71.8784 60.0013 71.2682C58.9712 70.6268 57.7686 69.9776 56.3936 69.3206C55.0484 68.6309 53.5358 68.0427 51.8557 67.5559C50.2055 67.0366 48.4126 66.8208 46.4771 66.9088C43.9172 67.0251 41.6163 67.677 39.5743 68.8647C37.531 70.0211 35.8196 71.6004 34.4403 73.6026C33.0596 75.5735 32.0237 77.9042 31.3326 80.5945C30.64 83.2537 30.364 86.1286 30.5044 89.2191C30.6278 91.9351 30.9931 94.468 31.6004 96.8179C32.2076 99.1677 33.0505 101.194 34.1289 102.897C35.2371 104.567 36.5631 105.868 38.1069 106.798C39.6507 107.729 41.4372 108.149 43.4664 108.057C45.4331 107.967 47.646 107.444 50.1052 106.488L50.8822 99.8365L41.9383 100.243C42.4535 96.4343 42.9119 93.4416 43.3136 91.2649C43.7152 89.0882 44.1097 87.4436 44.4971 86.3311C44.8845 85.2186 45.306 84.5113 45.7615 84.2091C46.217 83.9068 46.7569 83.7415 47.3813 83.7132L72.0121 82.5942C72.7301 82.5615 73.2473 82.585 73.5638 82.6644C73.9114 82.7425 74.098 83.0625 74.1235 83.6244C74.1363 83.9054 74.1207 84.2502 74.0767 84.6588C74.0313 85.0363 73.9745 85.5081 73.9064 86.0743L71.9224 94.0475C71.6869 95.0593 71.4882 95.8504 71.3264 96.4208C71.1632 96.96 70.9475 97.3765 70.6793 97.6702C70.4097 97.9327 70.0266 98.1065 69.5299 98.1916C69.0631 98.2441 68.377 98.2909 67.4717 98.3321C66.9722 98.3548 66.6848 98.5712 66.6096 98.9812C66.5344 99.3913 66.4755 99.8163 66.4329 100.256C66.308 101.638 66.1831 103.02 66.0582 104.402C65.9319 105.753 65.802 107.026 65.6686 108.221C65.565 109.383 65.4401 110.421 65.2939 111.335C65.1463 112.218 64.9881 112.866 64.8192 113.28C62.7574 114.719 60.8758 115.993 59.1744 117.103C57.5028 118.18 55.8234 119.085 54.1362 119.819C52.4504 120.584 50.6632 121.181 48.7745 121.611C46.8858 122.041 44.7084 122.312 42.2422 122.424C37.8405 122.624 33.6836 122.015 29.7714 120.597C25.8593 119.18 22.4176 117.099 19.4463 114.356C16.5048 111.581 14.1316 108.232 12.3268 104.31C10.5219 100.388 9.50956 96.0071 9.28974 91.1683ZM109.645 119.362C105.243 119.562 101.339 119.019 97.9337 117.735C94.5593 116.45 91.6944 114.671 89.339 112.401C86.9821 110.099 85.1715 107.429 83.9073 104.389C82.6416 101.319 81.9329 98.113 81.7811 94.7727C81.6294 91.4324 82.0317 88.239 82.9882 85.1925C83.9433 82.1147 85.3503 79.3449 87.2092 76.883C89.0667 74.3898 91.3329 72.2848 94.0077 70.5679C96.6811 68.8198 99.6596 67.5896 102.943 66.8773C103.441 66.8234 103.686 66.7028 103.678 66.5155C103.662 66.1721 103.601 65.8621 103.495 65.5854C103.418 65.276 103.375 65.0121 103.365 64.7936C103.349 64.4502 103.401 64.2132 103.52 64.0826C103.639 63.9521 103.777 63.8833 103.933 63.8762C109.896 63.6053 115 64.0616 119.245 65.2452C123.489 66.3975 126.976 68.0848 129.705 70.307C132.433 72.5292 134.463 75.2054 135.794 78.3357C137.125 81.4661 137.873 84.8575 138.039 88.51C138.251 93.1614 137.659 97.3488 136.264 101.072C134.869 104.796 132.871 107.983 130.27 110.635C127.7 113.286 124.634 115.349 121.072 116.825C117.543 118.33 113.734 119.176 109.645 119.362ZM99.786 93.4386C99.8626 95.1244 100.11 96.7867 100.529 98.4257C100.979 100.063 101.64 101.535 102.512 102.84C103.416 104.144 104.559 105.187 105.939 105.969C107.318 106.72 109.007 107.05 111.005 106.959C112.438 106.831 113.673 106.462 114.709 105.852C115.774 105.21 116.677 104.418 117.416 103.477C118.154 102.505 118.746 101.43 119.193 100.252C119.672 99.0732 120.024 97.8685 120.249 96.6382C120.505 95.3753 120.668 94.1479 120.739 92.9559C120.81 91.764 120.823 90.6841 120.779 89.7164C120.706 88.0931 120.384 86.5123 119.813 84.9741C119.274 83.4345 118.509 82.0928 117.519 80.9491C116.528 79.8054 115.314 78.9064 113.877 78.2522C112.469 77.5654 110.86 77.2631 109.05 77.3454C107.176 77.4305 105.626 78.064 104.397 79.246C103.166 80.3968 102.198 81.8015 101.491 83.4603C100.816 85.1177 100.347 86.8595 100.086 88.6857C99.8237 90.4807 99.7236 92.065 99.786 93.4386ZM348.746 51.1588C347.968 56.0742 347.206 60.9888 346.459 65.9028C345.743 70.7841 345.091 75.725 344.505 80.7255C344.489 81.7585 344.413 82.4815 344.275 82.8944C344.169 83.3059 343.837 83.5713 343.279 83.6905C342.071 83.9643 340.88 84.253 339.705 84.5567C338.53 84.8603 337.295 85.2136 335.999 85.6166C335.75 85.6279 335.592 85.6038 335.527 85.5442C335.491 85.4519 335.47 85.3278 335.463 85.1717L332.893 38.9282C332.91 37.9264 332.987 37.219 333.125 36.8061C333.263 36.3932 333.594 36.1122 334.119 35.9632C336.746 35.2495 339.4 34.4564 342.082 33.5838C344.762 32.6799 347.599 31.769 350.591 30.851C350.684 30.8155 350.823 30.7935 351.011 30.785C351.354 30.7694 351.533 30.9177 351.547 31.2299C351.549 31.2611 351.504 31.6542 351.413 32.4091C351.321 33.1328 351.192 34.0771 351.026 35.2421C350.891 36.4056 350.732 37.7267 350.549 39.2053C350.364 40.6527 350.165 42.1164 349.95 43.5964C349.735 45.0451 349.517 46.4471 349.297 47.8022C349.107 49.1247 348.923 50.2436 348.746 51.1588ZM348.868 90.0058C348.835 91.3524 348.804 92.3862 348.774 93.107C348.776 93.8264 348.769 94.3742 348.755 94.7502C348.74 95.095 348.734 95.3142 348.738 95.4079C348.742 95.5015 348.73 95.5803 348.702 95.6441C348.703 95.6754 348.692 95.7697 348.668 95.9272C348.674 96.0521 348.671 96.3494 348.661 96.8191C348.65 97.2575 348.633 97.9152 348.61 98.7922C348.588 99.6691 348.549 100.875 348.493 102.411C348.478 103.444 348.401 104.167 348.263 104.58C348.155 104.96 347.823 105.225 347.267 105.376C344.638 106.027 341.884 106.699 339.006 107.393C336.13 108.118 333.355 108.995 330.68 110.024C330.588 110.059 330.448 110.081 330.26 110.09L329.822 109.734C329.757 109.675 329.724 109.645 329.724 109.645L330.171 96.7675C330.188 95.7657 330.25 95.0591 330.357 94.6476C330.494 94.2347 330.841 93.953 331.397 93.8026C334.03 93.2138 336.69 92.5611 339.379 91.8446C342.068 91.1281 344.913 90.3888 347.912 89.6269C348.005 89.5914 348.144 89.5694 348.332 89.5609C348.675 89.5453 348.854 89.6936 348.868 90.0058Z" fill="#747474"/>
<path d="M156.305 114.192C155.673 114.064 155.241 113.849 155.009 113.547C154.775 113.213 154.648 112.844 154.63 112.438C154.626 112.344 154.623 112.282 154.621 112.251C154.651 112.218 154.664 112.155 154.66 112.061C154.756 108.678 154.861 105.139 154.975 101.442C155.118 97.7131 155.275 93.9364 155.446 90.1123C155.614 86.2569 155.784 82.4171 155.955 78.5929C156.125 74.7688 156.3 71.0538 156.481 67.4482L156.434 67.4503C156.309 67.456 155.955 67.5816 155.372 67.827C154.818 68.0399 154.173 68.2882 153.435 68.572C152.727 68.8231 152.002 69.0594 151.261 69.2807C150.521 69.502 149.916 69.6233 149.448 69.6446C149.042 69.6631 148.738 69.5204 148.537 69.2168C148.367 68.9117 148.273 68.5718 148.256 68.1972C148.243 67.9163 148.278 67.6488 148.36 67.3948C149.093 64.9215 149.863 62.6029 150.672 60.439C151.481 58.275 152.287 56.0486 153.09 53.7598C155.405 52.3721 157.82 51.1518 160.338 50.099C162.854 49.015 165.393 48.1019 167.956 47.3598C170.548 46.5851 173.133 45.9828 175.71 45.5529C178.285 45.0918 180.79 44.806 183.225 44.6953C186.628 44.5408 189.844 44.7544 192.874 45.3362C195.935 45.9167 198.607 46.8902 200.89 48.2567C203.203 49.5906 205.049 51.3367 206.43 53.4951C207.84 55.6207 208.613 58.1664 208.748 61.1321C208.806 62.412 208.581 63.6579 208.073 64.8697C207.565 66.0815 206.883 67.2543 206.027 68.388C205.201 69.4892 204.263 70.5328 203.213 71.519C202.162 72.4739 201.122 73.3501 200.095 74.1476C201.643 75.1721 203.031 76.1101 204.258 76.9615C205.516 77.7803 206.588 78.6544 207.474 79.5839C208.361 80.5134 209.051 81.5769 209.543 82.7746C210.034 83.941 210.319 85.3827 210.397 87.0997C210.516 89.7219 210.162 92.2563 209.334 94.7026C208.537 97.1163 207.373 99.3902 205.844 101.524C204.344 103.626 202.523 105.554 200.382 107.309C198.272 109.063 195.948 110.592 193.411 111.896C190.903 113.167 188.228 114.181 185.384 114.935C182.573 115.72 179.716 116.178 176.813 116.31C175.751 116.358 174.326 116.314 172.537 116.176C170.747 116.038 168.862 115.858 166.881 115.635C164.933 115.442 162.998 115.202 161.077 114.914C159.188 114.655 157.598 114.415 156.305 114.192ZM175.558 61.8422C175.132 65.5529 174.803 69.3217 174.57 73.1487C174.336 76.9445 174.144 80.6445 173.995 84.2487C173.876 87.8203 173.78 91.2188 173.708 94.4442C173.635 97.6695 173.547 100.551 173.444 103.09C174.692 103.033 176.032 102.91 177.462 102.72C178.922 102.497 180.363 102.181 181.783 101.773C183.204 101.364 184.573 100.864 185.891 100.272C187.239 99.6479 188.41 98.9065 189.403 98.0481C190.396 97.1896 191.181 96.1999 191.755 95.0789C192.329 93.9267 192.583 92.6326 192.517 91.1966C192.478 90.3225 192.178 89.5697 191.617 88.9382C191.055 88.2755 190.342 87.7292 189.478 87.2992C188.644 86.8366 187.72 86.4719 186.707 86.2051C185.692 85.9071 184.697 85.6864 183.72 85.5431C182.774 85.3671 181.893 85.2507 181.077 85.194C180.291 85.1045 179.693 85.0378 179.285 84.9938C178.845 84.9513 178.557 84.8079 178.421 84.5639C178.284 84.3198 178.208 84.0105 178.191 83.6358C178.172 83.23 178.394 82.6099 178.857 81.7756C179.32 80.9412 179.956 79.8018 180.766 78.3573L182.59 75.1305C183.419 74.7801 184.307 74.3487 185.253 73.8365C186.231 73.3228 187.128 72.7503 187.944 72.1188C188.758 71.4562 189.429 70.7375 189.957 69.9627C190.484 69.1568 190.726 68.3011 190.685 67.3958C190.569 64.8359 189.918 62.9104 188.734 61.6191C187.579 60.2951 185.955 59.6806 183.864 59.7757C181.491 59.8835 178.723 60.5723 175.558 61.8422ZM271.187 103.764C271.141 104.799 271.048 105.522 270.911 105.935C270.772 106.317 270.44 106.582 269.915 106.731C267.295 107.601 264.551 108.492 261.684 109.404C258.846 110.284 256.097 111.41 253.438 112.782C253.346 112.818 253.206 112.84 253.019 112.848C252.769 112.859 252.61 112.804 252.542 112.682C252.505 112.559 252.483 112.419 252.476 112.263C252.473 112.2 252.468 112.091 252.461 111.935C252.485 111.777 252.518 111.479 252.561 111.039C252.605 110.63 252.657 110.049 252.716 109.296C252.807 108.541 252.918 107.535 253.048 106.277C249.656 108.715 246.625 110.511 243.955 111.664C241.319 112.848 238.955 113.487 236.863 113.582C231.65 113.819 227.785 112.743 225.267 110.355C222.78 107.934 221.423 104.226 221.196 99.2314C221.155 98.3261 221.129 97.4045 221.117 96.4665C221.104 95.4973 221.153 94.5097 221.264 93.5037C221.44 89.8044 221.593 86.6379 221.724 84.0043C221.853 81.3394 221.954 79.0825 222.027 77.2336C222.099 75.3846 222.156 73.8805 222.197 72.7212C222.268 71.5292 222.317 70.5416 222.344 69.7583C222.402 68.9736 222.435 68.3308 222.444 67.8299C222.482 67.2964 222.521 66.7785 222.561 66.2761C222.641 65.2715 222.718 64.5641 222.793 64.154C222.9 63.7425 223.246 63.4609 223.834 63.3091C225.288 62.9614 226.666 62.6486 227.967 62.3705C229.298 62.0598 230.598 61.7505 231.867 61.4426C233.165 61.102 234.479 60.7452 235.807 60.372C237.135 59.9989 238.538 59.5597 240.017 59.0546C240.079 59.0518 240.142 59.0489 240.204 59.0461C240.265 59.012 240.327 58.9936 240.389 58.9908C240.764 58.9737 240.957 59.0901 240.968 59.3398L240.973 59.4335C240.896 60.5006 240.832 61.5045 240.781 62.4453C240.73 63.3861 240.68 64.3581 240.632 65.3613C240.582 66.3333 240.52 67.3841 240.447 68.5136C240.404 69.6417 240.339 70.9585 240.251 72.4641C240.161 73.9384 240.051 75.6483 239.921 77.5937C239.79 79.5391 239.627 81.7989 239.431 84.3729C239.329 86.2545 239.227 88.1361 239.124 90.0176C239.021 91.868 239.005 93.5892 239.077 95.1813C239.117 96.0554 239.216 96.8643 239.375 97.6078C239.533 98.3202 239.78 98.9346 240.116 99.4511C240.482 99.935 240.937 100.305 241.48 100.562C242.024 100.819 242.717 100.928 243.56 100.89C244.215 100.86 245.099 100.679 246.21 100.347C247.319 99.9841 248.42 99.418 249.511 98.6489C250.601 97.8486 251.54 96.8362 252.329 95.6116C253.148 94.3544 253.578 92.802 253.619 90.9545C253.697 87.854 253.768 85.2701 253.83 83.2026C253.922 81.1025 253.999 79.3472 254.06 77.9367C254.12 76.495 254.174 75.2882 254.224 74.3162C254.274 73.3442 254.31 72.4197 254.333 71.5428C254.385 70.6332 254.42 69.6775 254.437 68.6757C254.453 67.6427 254.457 66.3599 254.45 64.8274C254.497 63.793 254.574 63.0856 254.682 62.7053C254.82 62.2924 255.167 62.0107 255.723 61.8603C258.538 61.1693 261.416 60.4755 264.356 59.7789C267.295 59.051 270.164 58.1699 272.964 57.1355C273.213 57.1242 273.356 57.1646 273.392 57.2568C273.457 57.3164 273.493 57.4243 273.5 57.5804L271.187 103.764ZM286.336 95.9436C286.334 95.9124 286.318 95.8975 286.287 95.8989C286.285 95.8677 286.284 95.8365 286.282 95.8053C286.264 95.3994 286.473 95.1866 286.91 95.1667C287.191 95.154 287.446 95.2519 287.675 95.4605C288.977 96.59 290.441 97.4933 292.068 98.1702C293.725 98.8456 295.49 99.1408 297.363 99.0557C297.863 99.033 298.438 98.96 299.089 98.8365C299.739 98.6819 300.355 98.4662 300.937 98.1895C301.519 97.9128 301.988 97.5631 302.344 97.1402C302.73 96.6847 302.909 96.1448 302.88 95.5204C302.849 94.8337 302.649 94.2171 302.28 93.6708C301.91 93.0932 301.435 92.6299 300.856 92.2808C300.534 92.0765 299.971 91.7267 299.166 91.2315C298.36 90.705 297.49 90.1502 296.557 89.5669C295.654 88.9823 294.785 88.4274 293.947 87.9024C293.141 87.3759 292.577 86.9949 292.253 86.7594C290.8 85.7618 289.627 84.7358 288.735 83.6815C287.873 82.6257 287.198 81.5303 286.709 80.3951C286.218 79.2286 285.881 78.0083 285.698 76.734C285.515 75.4598 285.39 74.1046 285.325 72.6686C285.226 70.4834 285.71 68.3968 286.777 66.4088C287.844 64.4208 289.281 62.6507 291.087 61.0983C292.925 59.5446 295.026 58.2917 297.392 57.3396C299.756 56.3563 302.187 55.8079 304.684 55.6944C306.745 55.6008 308.788 55.8208 310.814 56.3544C312.84 56.888 314.746 57.865 316.531 59.2855C316.777 61.2451 316.974 63.1756 317.123 65.0771C317.272 66.9785 317.456 68.9722 317.676 71.0581C317.695 71.464 317.614 71.7492 317.433 71.9138C317.252 72.0472 317.036 72.1195 316.786 72.1309C316.568 72.1408 316.377 72.0713 316.214 71.9223C315.465 71.2681 314.7 70.6302 313.921 70.0087C313.141 69.3559 312.318 68.799 311.452 68.3378C310.617 67.844 309.723 67.4622 308.773 67.1926C307.821 66.8917 306.814 66.7654 305.752 66.8137C305.097 66.8434 304.444 66.9357 303.794 67.0903C303.143 67.2137 302.559 67.4436 302.042 67.7799C301.524 68.085 301.105 68.495 300.784 69.0101C300.495 69.5238 300.368 70.1709 300.403 70.9513C300.445 71.8566 300.589 72.6321 300.838 73.2777C301.086 73.9234 301.63 74.54 302.47 75.1274L311.448 80.6319C313.09 81.6522 314.419 82.6711 315.434 83.6885C316.48 84.6733 317.307 85.668 317.916 86.6727C318.525 87.6774 318.946 88.6905 319.18 89.7122C319.444 90.7012 319.599 91.6953 319.644 92.6942C319.772 95.5038 319.229 98.0154 318.016 100.229C316.832 102.41 315.243 104.265 313.248 105.795C311.251 107.293 308.958 108.461 306.369 109.298C303.812 110.165 301.222 110.658 298.6 110.777C296.602 110.868 294.656 110.737 292.763 110.386C290.903 110.063 289.157 109.501 287.525 108.7L286.336 95.9436Z" fill="#F6C555"/>
<path d="M32.2069 145.728C79.0471 145.968 126.686 139.062 173.352 136.299C239.809 132.364 306.542 130.592 372.825 125.275" stroke="#F6C555" stroke-width="8" stroke-linecap="round"/>
</svg>
