<svg width="227" height="57" viewBox="0 0 227 57" fill="none" xmlns="http://www.w3.org/2000/svg">
<path d="M30.12 46.08V25.32H51.3V18.06H30.12V0.899998H22.44V46.08H0.959997V53.28H55.5V46.08H30.12ZM78.06 32.82V29.16H88.5V32.82H78.06ZM78.06 20.16H88.5V23.82H78.06V20.16ZM106.32 20.16V23.82H95.82V20.16H106.32ZM106.32 32.82H95.82V29.16H106.32V32.82ZM119.76 41.76H95.82V38.52H113.52V14.46H95.82V11.58H118.02V5.1H95.82V0.239999H88.5V5.1H66.72V11.58H88.5V14.46H71.22V38.52H88.5V41.76H65.28V48.18H88.5V56.28H95.82V48.18H119.76V41.76ZM217.74 35.58H223.86L225.48 15.06L225.78 6.12H215.82L216.12 15.06L217.74 35.58ZM220.8 51.54C223.8 51.54 226.08 49.38 226.08 46.26C226.08 43.08 223.8 40.92 220.8 40.92C217.8 40.92 215.52 43.08 215.52 46.26C215.52 49.38 217.74 51.54 220.8 51.54Z" fill="#747474"/>
<path d="M152.34 10.62V23.52H141.12V10.62H152.34ZM170.88 23.52H159.54V10.62H170.88V23.52ZM148.56 48.24C141.96 48.24 141.12 47.46 141.12 42.78V30.48H170.88V33.54H178.32V3.6H133.68V42.72C133.68 52.86 137.16 55.26 148.74 55.26H169.68C180.06 55.26 182.88 51.96 184.2 41.94C182.1 41.52 178.86 40.26 177 39.24C176.04 46.74 174.9 48.24 169.02 48.24H148.56Z" fill="#F6C555"/>
</svg>
