<svg width="125" height="50" viewBox="0 0 125 50" fill="none" xmlns="http://www.w3.org/2000/svg">
<path d="M2.93231 28.8481C2.87968 27.7263 2.95617 26.6476 3.16178 25.6122C3.37668 24.5666 3.70234 23.5894 4.13875 22.6807C4.5747 21.7622 5.11233 20.9273 5.75164 20.1758C6.40025 19.4141 7.13194 18.7563 7.94672 18.2024C8.76104 17.6387 9.64937 17.194 10.6117 16.8682C11.5838 16.5419 12.6113 16.355 13.6943 16.3073C14.5528 16.2696 15.3068 16.2951 15.9562 16.3838C16.6149 16.4623 17.1874 16.5789 17.6737 16.7334C18.1693 16.8778 18.5828 17.0453 18.9144 17.236C19.2557 17.4263 19.5381 17.6094 19.7614 17.7853C19.7516 17.7857 19.7484 17.8201 19.7516 17.8883C19.7584 18.0347 19.7808 18.3025 19.8186 18.6918C19.8662 19.0807 19.9158 19.5135 19.9675 19.9902C20.0289 20.4665 20.0811 20.953 20.1239 21.4496C20.1761 21.9361 20.2106 22.3598 20.2276 22.7207C20.2303 22.7792 20.214 22.8484 20.1786 22.9281C20.1428 22.9981 20.0469 23.0366 19.8908 23.0434C19.803 23.0473 19.6949 23.0374 19.5667 23.0137C19.3591 22.9642 19.0944 22.8439 18.7726 22.6528C18.4503 22.4519 18.0742 22.2485 17.6441 22.0426C17.2234 21.8265 16.7504 21.642 16.225 21.4892C15.709 21.3262 15.1486 21.258 14.5437 21.2846C13.7437 21.3198 13.0249 21.5224 12.3872 21.8926C11.7491 22.253 11.215 22.7457 10.7848 23.3707C10.3542 23.9859 10.0315 24.7137 9.81672 25.554C9.60151 26.3846 9.51655 27.2828 9.56186 28.2485C9.60167 29.0972 9.71702 29.8888 9.9079 30.6233C10.0988 31.3578 10.3631 31.9913 10.701 32.5238C11.0481 33.0462 11.4631 33.4531 11.9461 33.7447C12.429 34.0363 12.9875 34.1681 13.6217 34.1402C14.2363 34.1131 14.9277 33.9508 15.6959 33.6531L15.9357 31.5751L13.1405 31.698C13.2998 30.5083 13.4417 29.5734 13.5662 28.8934C13.6907 28.2135 13.8133 27.6998 13.9338 27.3524C14.0544 27.0049 14.1858 26.7841 14.328 26.6899C14.4702 26.5956 14.6389 26.5442 14.834 26.5356L22.5317 26.197C22.7561 26.1871 22.9177 26.1947 23.0167 26.2197C23.1254 26.2442 23.1838 26.3443 23.1921 26.5198C23.1962 26.6076 23.1915 26.7154 23.1779 26.843C23.1639 26.961 23.1463 27.1084 23.1253 27.2852L22.5089 29.7757C22.4358 30.0917 22.374 30.3388 22.3237 30.5169C22.273 30.6853 22.2058 30.8154 22.1221 30.907C22.0379 30.9889 21.9183 31.0431 21.7631 31.0695C21.6172 31.0856 21.4028 31.1 21.1199 31.1124C20.9638 31.1193 20.874 31.1868 20.8507 31.3149C20.8274 31.443 20.8092 31.5757 20.7961 31.7132C20.7577 32.1449 20.7193 32.5767 20.6809 33.0085C20.642 33.4306 20.602 33.8282 20.5609 34.2015C20.529 34.5646 20.4905 34.8888 20.4452 35.1743C20.3995 35.45 20.3503 35.6526 20.2977 35.7819C19.654 36.2306 19.0665 36.6279 18.5353 36.9738C18.0133 37.3096 17.4889 37.5917 16.9619 37.8202C16.4354 38.0584 15.877 38.2442 15.287 38.3777C14.6969 38.5112 14.0164 38.5949 13.2457 38.6288C11.8701 38.6893 10.5706 38.4972 9.34724 38.0525C8.12389 37.6078 7.04726 36.9563 6.11734 36.0979C5.19672 35.2293 4.45346 34.1819 3.88756 32.9555C3.32166 31.7292 3.00324 30.3601 2.93231 28.8481ZM34.3103 37.7021C32.9347 37.7626 31.7144 37.5915 30.6494 37.1887C29.5942 36.7855 28.698 36.2286 27.9608 35.5181C27.2231 34.7979 26.656 33.9627 26.2594 33.0124C25.8625 32.0523 25.6395 31.0504 25.5905 30.0067C25.5415 28.9629 25.6658 27.9652 25.9633 27.0138C26.2604 26.0525 26.6989 25.1877 27.2787 24.4193C27.8582 23.6411 28.5655 22.9844 29.4007 22.4491C30.2354 21.9041 31.1657 21.521 32.1917 21.2999C32.3473 21.2833 32.4237 21.2458 32.421 21.1872C32.416 21.0799 32.3968 20.983 32.3634 20.8965C32.3393 20.7998 32.3256 20.7173 32.3224 20.649C32.3174 20.5417 32.3335 20.4677 32.3707 20.427C32.4079 20.3862 32.4508 20.3648 32.4996 20.3627C34.3631 20.2807 35.9585 20.4255 37.286 20.7972C38.613 21.1592 39.7034 21.6879 40.5573 22.3835C41.4111 23.0791 42.0467 23.9162 42.4641 24.8949C42.8816 25.8736 43.117 26.9336 43.1706 28.0749C43.2388 29.5284 43.0557 30.8365 42.6215 31.9993C42.1872 33.1621 41.5642 34.1572 40.7525 34.9847C39.9505 35.8118 38.9933 36.455 37.8808 36.9145C36.7785 37.3834 35.5884 37.6459 34.3103 37.7021ZM31.2172 29.5978C31.2419 30.1246 31.32 30.6441 31.4516 31.1564C31.5929 31.6683 31.8002 32.1284 32.0736 32.5367C32.3567 32.9445 32.7142 33.2709 33.146 33.5158C33.5775 33.751 34.1054 33.8549 34.7298 33.8274C35.1776 33.7881 35.5633 33.6734 35.8868 33.4833C36.2195 33.2829 36.5012 33.0359 36.7319 32.7423C36.962 32.4389 37.1467 32.1033 37.2859 31.7355C37.4348 31.3673 37.5442 30.991 37.6142 30.6067C37.6935 30.2122 37.7439 29.8288 37.7655 29.4564C37.7872 29.084 37.7909 28.7466 37.7767 28.4442C37.7529 27.9369 37.6515 27.4428 37.4725 26.962C37.3033 26.4807 37.0637 26.0611 36.7536 25.7033C36.4435 25.3455 36.0637 25.0641 35.6141 24.859C35.1739 24.6438 34.6708 24.5486 34.105 24.5735C33.5196 24.5993 33.0352 24.7965 32.6516 25.1653C32.2676 25.5243 31.9656 25.9628 31.7455 26.4808C31.5351 26.9983 31.3896 27.5424 31.3088 28.1129C31.2276 28.6736 31.197 29.1686 31.2172 29.5978ZM109.008 16.4983C108.767 18.0338 108.531 19.5691 108.3 21.1041C108.078 22.629 107.877 24.1726 107.696 25.7347C107.692 26.0575 107.668 26.2834 107.625 26.4123C107.592 26.5409 107.488 26.6236 107.314 26.6606C106.937 26.7456 106.565 26.8353 106.198 26.9297C105.831 27.024 105.445 27.1339 105.04 27.2592C104.962 27.2626 104.913 27.255 104.892 27.2364C104.881 27.2075 104.874 27.1687 104.872 27.12L104.047 12.6696C104.052 12.3566 104.076 12.1356 104.119 12.0067C104.162 11.8777 104.265 11.7901 104.429 11.7438C105.25 11.5219 106.079 11.2753 106.917 11.0038C107.754 10.7226 108.64 10.4393 109.575 10.1538C109.604 10.1427 109.648 10.1359 109.706 10.1333C109.814 10.1286 109.87 10.175 109.874 10.2726C109.875 10.2823 109.861 10.4051 109.833 10.641C109.804 10.867 109.764 11.162 109.713 11.526C109.671 11.8895 109.622 12.3022 109.566 12.7641C109.509 13.2163 109.447 13.6735 109.381 14.1359C109.314 14.5885 109.247 15.0264 109.179 15.4497C109.12 15.8629 109.063 16.2124 109.008 16.4983ZM109.064 28.6364C109.054 29.0572 109.045 29.3801 109.036 29.6054C109.037 29.8301 109.035 30.0013 109.031 30.1188C109.026 30.2265 109.024 30.295 109.026 30.3243C109.027 30.3535 109.023 30.3781 109.015 30.3981C109.015 30.4078 109.012 30.4373 109.004 30.4865C109.006 30.5255 109.005 30.6184 109.002 30.7652C108.999 30.9022 108.994 31.1077 108.987 31.3817C108.981 31.6557 108.969 32.0325 108.952 32.5122C108.948 32.835 108.924 33.0609 108.882 33.1898C108.848 33.3086 108.744 33.3913 108.571 33.4381C107.749 33.6404 106.889 33.8493 105.99 34.0648C105.091 34.2901 104.224 34.5628 103.389 34.8831C103.36 34.8941 103.316 34.9009 103.258 34.9035L103.12 34.7922C103.1 34.7736 103.09 34.7642 103.09 34.7642L103.224 30.7408C103.228 30.4278 103.247 30.207 103.28 30.0785C103.323 29.9495 103.432 29.8617 103.605 29.8149C104.428 29.6321 105.259 29.4294 106.099 29.2067C106.939 28.984 107.828 28.7543 108.765 28.5176C108.794 28.5065 108.838 28.4997 108.896 28.4972C109.003 28.4924 109.059 28.5389 109.064 28.6364Z" fill="#E5E8E7"/>
<path d="M48.8912 36.1076C48.6938 36.0674 48.5586 36 48.4857 35.9055C48.4124 35.8012 48.3728 35.6856 48.3668 35.5588C48.3655 35.5295 48.3645 35.51 48.3641 35.5003C48.3734 35.4901 48.3773 35.4704 48.376 35.4411C48.4046 34.3841 48.4358 33.2782 48.4696 32.1232C48.5127 30.9581 48.56 29.7782 48.6115 28.5833C48.6625 27.3788 48.7138 26.1791 48.7653 24.9842C48.8168 23.7894 48.8698 22.6288 48.9245 21.5022L48.9099 21.5029C48.8709 21.5046 48.7603 21.5437 48.5781 21.6201C48.4052 21.6864 48.2036 21.7636 47.9731 21.852C47.7519 21.9301 47.5256 22.0036 47.2942 22.0725C47.0628 22.1413 46.8739 22.1789 46.7276 22.1854C46.6007 22.1909 46.5058 22.1463 46.4427 22.0513C46.3893 21.9559 46.3599 21.8496 46.3544 21.7326C46.3503 21.6448 46.361 21.5612 46.3866 21.4819C46.6143 20.7094 46.8541 19.9853 47.1059 19.3095C47.3577 18.6337 47.6086 17.9385 47.8586 17.2237C48.5813 16.7911 49.3358 16.4109 50.1221 16.083C50.9079 15.7454 51.7011 15.4613 52.5017 15.2306C53.3116 14.9897 54.1192 14.8026 54.9244 14.6694C55.7291 14.5265 56.5119 14.4383 57.2729 14.4048C58.3364 14.3581 59.3416 14.4262 60.2887 14.6094C61.2456 14.7921 62.0812 15.0975 62.7954 15.5255C63.5189 15.9433 64.0969 16.4897 64.5294 17.1647C64.9711 17.8296 65.2138 18.6253 65.2573 19.552C65.276 19.952 65.2063 20.3412 65.0481 20.7196C64.8899 21.098 64.6773 21.4641 64.4104 21.818C64.1528 22.1617 63.8601 22.4874 63.5323 22.795C63.2042 23.0929 62.8797 23.3663 62.559 23.615C63.0433 23.9358 63.4774 24.2295 63.8614 24.4961C64.2548 24.7525 64.5902 25.0261 64.8678 25.3169C65.1454 25.6077 65.3614 25.9403 65.5159 26.3148C65.6698 26.6794 65.7594 27.13 65.7846 27.6665C65.823 28.486 65.7135 29.2777 65.4561 30.0417C65.2079 30.7955 64.8453 31.5055 64.3682 32.1716C63.9004 32.8276 63.3322 33.4293 62.6638 33.9768C62.0051 34.5238 61.2796 35.0005 60.4872 35.4068C59.7042 35.8029 58.8684 36.1183 57.98 36.3529C57.1018 36.5968 56.209 36.7387 55.3017 36.7786C54.97 36.7932 54.5245 36.7786 53.9652 36.7348C53.4059 36.691 52.8166 36.6338 52.1974 36.5633C51.5884 36.5021 50.9836 36.4261 50.383 36.3352C49.7926 36.2536 49.2953 36.1778 48.8912 36.1076ZM54.8845 19.7591C54.7532 20.9183 54.652 22.0958 54.581 23.2915C54.5095 24.4774 54.4513 25.6334 54.4064 26.7595C54.3708 27.8754 54.3424 28.9373 54.3212 29.945C54.3001 30.9528 54.2739 31.8532 54.2426 32.6464C54.6329 32.6292 55.0515 32.5913 55.4984 32.5325C55.9547 32.4635 56.4047 32.3655 56.8484 32.2385C57.2922 32.1115 57.7199 31.9558 58.1317 31.7715C58.5527 31.577 58.9183 31.3459 59.2283 31.0781C59.5384 30.8103 59.7829 30.5014 59.9621 30.1514C60.1407 29.7916 60.2195 29.3874 60.1984 28.9387C60.1856 28.6655 60.0915 28.4302 59.916 28.2326C59.7401 28.0253 59.517 27.8543 59.2467 27.7196C58.9857 27.5746 58.6969 27.4603 58.3801 27.3765C58.0629 27.2829 57.7516 27.2135 57.4465 27.1683C57.1506 27.1129 56.8751 27.0761 56.6201 27.058C56.3743 27.0297 56.1876 27.0086 56.0598 26.9947C55.9223 26.9812 55.8323 26.9363 55.7896 26.8599C55.7469 26.7836 55.7228 26.6869 55.7173 26.5699C55.7113 26.4431 55.7805 26.2494 55.9247 25.9889C56.0689 25.7284 56.2673 25.3727 56.5198 24.9217L57.0885 23.9143C57.3473 23.8051 57.6245 23.6708 57.9201 23.5111C58.2254 23.3511 58.5055 23.1726 58.7602 22.9756C59.0145 22.769 59.2239 22.5447 59.3885 22.3028C59.5527 22.0513 59.6282 21.784 59.6149 21.5011C59.5774 20.7012 59.3731 20.0993 59.0022 19.6952C58.6406 19.2811 58.133 19.0883 57.4793 19.1171C56.7379 19.1497 55.8729 19.3637 54.8845 19.7591ZM84.7919 32.9006C84.7777 33.2238 84.7492 33.4499 84.7064 33.5789C84.6631 33.6981 84.5595 33.7808 84.3954 33.8272C83.5771 34.0978 82.72 34.375 81.8242 34.6587C80.9376 34.9324 80.079 35.2829 79.2486 35.7105C79.2197 35.7215 79.1761 35.7283 79.1175 35.7309C79.0395 35.7343 78.9898 35.717 78.9684 35.6788C78.9569 35.6402 78.9499 35.5965 78.9476 35.5477C78.9467 35.5282 78.9451 35.4941 78.9428 35.4453C78.9503 35.3961 78.9606 35.3028 78.9737 35.1654C78.9873 35.0377 79.0032 34.8562 79.0215 34.6208C79.0495 34.3849 79.0836 34.0706 79.1239 33.6779C78.0646 34.438 77.1181 34.9977 76.2844 35.357C75.4609 35.7256 74.7224 35.9242 74.0687 35.953C72.4394 36.0247 71.2309 35.6868 70.443 34.9395C69.6645 34.182 69.2386 33.0228 69.1654 31.462C69.1521 31.1791 69.1435 30.8912 69.1395 30.5981C69.1351 30.2953 69.1499 29.9867 69.1841 29.6724C69.2374 28.5166 69.2838 27.5273 69.3235 26.7044C69.3626 25.8718 69.3931 25.1667 69.4148 24.589C69.4366 24.0113 69.4537 23.5414 69.466 23.1791C69.4877 22.8067 69.5025 22.4982 69.5106 22.2534C69.5284 22.0083 69.5385 21.8074 69.541 21.6509C69.5527 21.4842 69.5647 21.3224 69.5769 21.1655C69.6012 20.8516 69.6251 20.6306 69.6484 20.5025C69.6815 20.374 69.7898 20.2861 69.9733 20.239C70.4277 20.131 70.8582 20.0339 71.2648 19.9476C71.6806 19.8511 72.0867 19.755 72.4831 19.6594C72.8887 19.5535 73.299 19.4426 73.714 19.3266C74.1289 19.2106 74.5673 19.074 75.0292 18.9169C75.0487 18.916 75.0682 18.9151 75.0877 18.9143C75.1068 18.9037 75.1261 18.8979 75.1456 18.8971C75.2627 18.8919 75.323 18.9284 75.3267 19.0064L75.3281 19.0357C75.3046 19.3691 75.2851 19.6827 75.2696 19.9766C75.254 20.2706 75.2389 20.5743 75.2243 20.8877C75.2092 21.1914 75.1904 21.5197 75.1679 21.8726C75.1551 22.2251 75.1353 22.6365 75.1085 23.1069C75.0812 23.5675 75.0476 24.1017 75.0077 24.7095C74.9678 25.3173 74.9178 26.0233 74.8577 26.8275C74.8267 27.4154 74.7956 28.0032 74.7645 28.5911C74.733 29.1692 74.7289 29.707 74.7522 30.2045C74.765 30.4777 74.7964 30.7304 74.8464 30.9628C74.896 31.1855 74.9734 31.3776 75.0788 31.5391C75.1934 31.6905 75.3357 31.8064 75.5057 31.8869C75.6757 31.9674 75.8924 32.0019 76.1558 31.9903C76.3607 31.9813 76.6367 31.9251 76.9838 31.8219C77.3304 31.7089 77.6741 31.5325 78.0148 31.2927C78.355 31.0431 78.6482 30.7272 78.8942 30.3449C79.1495 29.9524 79.2832 29.4676 79.2952 28.8903C79.3182 27.9216 79.339 27.1142 79.3576 26.4683C79.3854 25.8121 79.4086 25.2637 79.427 24.823C79.445 24.3726 79.4615 23.9955 79.4766 23.6918C79.4917 23.3881 79.5026 23.0993 79.5093 22.8253C79.5253 22.5411 79.5357 22.2425 79.5406 21.9295C79.545 21.6067 79.5457 21.2059 79.5428 20.7271C79.557 20.4039 79.5808 20.1829 79.6144 20.0641C79.6572 19.9351 79.7655 19.8473 79.9393 19.8005C80.8188 19.5859 81.7179 19.3704 82.6365 19.154C83.5547 18.9279 84.451 18.6539 85.3256 18.3319C85.4036 18.3285 85.4482 18.3412 85.4593 18.37C85.4798 18.3887 85.4911 18.4224 85.4934 18.4712L84.7919 32.9006ZM89.5227 30.4638C89.5223 30.4541 89.5172 30.4494 89.5074 30.4498C89.5069 30.4401 89.5065 30.4303 89.506 30.4206C89.5001 30.2937 89.5654 30.2273 89.702 30.2213C89.7898 30.2175 89.8694 30.2482 89.9409 30.3135C90.3486 30.667 90.8067 30.9498 91.3152 31.1621C91.8335 31.3739 92.3854 31.4669 92.9707 31.4411C93.1268 31.4343 93.3066 31.4117 93.5101 31.3734C93.7132 31.3254 93.9056 31.2583 94.0873 31.1721C94.269 31.0859 94.4154 30.9768 94.5265 30.8448C94.6469 30.7027 94.7026 30.5341 94.6934 30.339C94.6834 30.1244 94.6205 29.9316 94.505 29.7608C94.389 29.5801 94.2404 29.4352 94.0593 29.3258C93.9585 29.2618 93.7823 29.1523 93.5306 28.9972C93.2785 28.8323 93.0064 28.6586 92.7143 28.4759C92.432 28.2928 92.1599 28.1191 91.898 27.9547C91.6458 27.7898 91.4691 27.6705 91.3679 27.5968C90.9133 27.2844 90.5463 26.9633 90.2669 26.6335C89.9972 26.3032 89.7856 25.9606 89.6321 25.6057C89.4781 25.241 89.3722 24.8596 89.3144 24.4613C89.2566 24.0631 89.2172 23.6396 89.1962 23.1909C89.1641 22.5081 89.3144 21.8563 89.647 21.2356C89.9796 20.6149 90.4279 20.0625 90.9917 19.5782C91.5653 19.0936 92.2216 18.703 92.9605 18.4066C93.6989 18.1004 94.4583 17.9301 95.2388 17.8958C95.8827 17.8675 96.5215 17.9371 97.155 18.1048C97.7886 18.2724 98.3846 18.5785 98.9432 19.0231C99.0208 19.6356 99.0833 20.2389 99.1307 20.833C99.1782 21.4272 99.2367 22.0503 99.3064 22.7021C99.3124 22.8289 99.2872 22.918 99.231 22.9694C99.1742 23.011 99.1069 23.0335 99.0288 23.0369C98.9605 23.0399 98.9008 23.0181 98.8498 22.9715C98.6153 22.7667 98.3762 22.5671 98.1324 22.3725C97.8882 22.1682 97.6308 21.9938 97.36 21.8493C97.0986 21.6947 96.8192 21.575 96.522 21.4903C96.2242 21.3959 95.9095 21.356 95.5778 21.3706C95.3729 21.3796 95.169 21.4081 94.9659 21.4561C94.7624 21.4944 94.58 21.566 94.4187 21.6708C94.257 21.7659 94.1261 21.8939 94.0261 22.0547C93.9359 22.215 93.8965 22.4172 93.9079 22.661C93.9212 22.9439 93.9668 23.1863 94.0447 23.3881C94.1226 23.59 94.293 23.7829 94.5558 23.9668L97.3643 25.6907C97.8778 26.0103 98.2936 26.3292 98.6116 26.6476C98.9389 26.9558 99.1979 27.2669 99.3887 27.5811C99.5794 27.8953 99.7115 28.2121 99.7852 28.5314C99.8681 28.8406 99.9169 29.1512 99.9316 29.4634C99.9727 30.3413 99.8043 31.1258 99.4261 31.817C99.0572 32.4979 98.5613 33.0769 97.9385 33.5539C97.3151 34.0212 96.599 34.3851 95.79 34.6455C94.9912 34.9152 94.1821 35.0681 93.3625 35.1042C92.7382 35.1317 92.1301 35.09 91.5383 34.9792C90.9567 34.8777 90.4107 34.7013 89.9004 34.4501L89.5227 30.4638Z" fill="#F6C555"/>
<path d="M8.03712 43.8406C22.7882 43.9568 37.7828 42.1238 52.4757 41.4201C73.4001 40.418 94.4136 40.0066 115.281 38.6274" stroke="#F6C555" stroke-width="3" stroke-linecap="round"/>
</svg>
