<svg width="260" height="66" viewBox="0 0 260 66" fill="none" xmlns="http://www.w3.org/2000/svg">
<path d="M8.44875 59.2226C8.44136 59.4925 8.5434 59.7539 8.73166 59.9474C8.91992 60.1409 9.17841 60.25 9.44837 60.25H48.4229C48.9752 60.25 49.4229 59.8023 49.4229 59.25V24.2356L57.7088 30.8642C58.14 31.2092 58.7693 31.1393 59.1143 30.708C59.4593 30.2768 59.3894 29.6475 58.9582 29.3025L49.0476 21.3741L29.7914 5.96913C29.4262 5.67696 28.9073 5.67696 28.542 5.96913L9.28583 21.3741L-0.624694 29.3025C-1.05596 29.6475 -1.12588 30.2768 -0.78087 30.708C-0.43586 31.1393 0.193432 31.2092 0.624694 30.8642L8.91053 24.2355V42.3525L8.44875 59.2226Z" fill="white" stroke="white" stroke-width="2" stroke-linecap="round" stroke-linejoin="round"/>
<path d="M79.7944 55.3516C78.3647 55.3516 77.1108 55.1875 76.0327 54.8594C74.9663 54.5195 74.0581 54.0566 73.3081 53.4707C72.5581 52.8848 71.9604 52.1875 71.5151 51.3789C71.0698 50.5586 70.7651 49.6621 70.6011 48.6895H74.6616C74.8022 49.2871 75.0073 49.8438 75.2769 50.3594C75.5464 50.875 75.8862 51.3262 76.2964 51.7129C76.7183 52.0879 77.2104 52.3867 77.7729 52.6094C78.3472 52.8203 79.0093 52.9258 79.7593 52.9258C80.2515 52.9258 80.7378 52.873 81.2183 52.7676C81.7104 52.6621 82.1499 52.4922 82.5366 52.2578C82.9233 52.0117 83.2339 51.7012 83.4683 51.3262C83.7026 50.9395 83.8198 50.4648 83.8198 49.9023C83.8198 49.1992 83.6382 48.5723 83.2749 48.0215C82.9116 47.4707 82.4312 46.9727 81.8335 46.5273C81.2358 46.0703 80.5562 45.6484 79.7944 45.2617C79.0327 44.875 78.2534 44.4883 77.4565 44.1016C76.6597 43.7031 75.8804 43.2871 75.1187 42.8535C74.3569 42.4199 73.6772 41.9395 73.0796 41.4121C72.4819 40.873 72.0015 40.2695 71.6382 39.6016C71.2749 38.9219 71.0933 38.1484 71.0933 37.2812C71.0933 36.332 71.2983 35.459 71.7085 34.6621C72.1304 33.8535 72.7339 33.1562 73.519 32.5703C74.3042 31.9727 75.2651 31.5098 76.4019 31.1816C77.5386 30.8418 78.8335 30.6719 80.2866 30.6719C81.4819 30.6719 82.5659 30.8359 83.5386 31.1641C84.5112 31.4922 85.3667 31.9492 86.105 32.5352C86.855 33.1094 87.4819 33.7891 87.9858 34.5742C88.4897 35.3477 88.8765 36.1797 89.146 37.0703H85.4722C85.2612 36.5078 85.0151 35.9688 84.7339 35.4531C84.4526 34.9375 84.1069 34.4863 83.6968 34.0996C83.2866 33.7129 82.7886 33.4082 82.2026 33.1855C81.6167 32.9512 80.9194 32.834 80.1108 32.834C79.3491 32.834 78.7046 32.9336 78.1772 33.1328C77.6616 33.332 77.2456 33.5898 76.9292 33.9062C76.6128 34.2109 76.3843 34.5566 76.2437 34.9434C76.103 35.3184 76.0327 35.6875 76.0327 36.0508C76.0327 36.6836 76.2202 37.2578 76.5952 37.7734C76.9702 38.2891 77.4624 38.7695 78.0718 39.2148C78.6929 39.6602 79.396 40.0879 80.1812 40.498C80.9663 40.8965 81.7632 41.3008 82.5718 41.7109C83.3921 42.1211 84.1948 42.5547 84.98 43.0117C85.7651 43.457 86.4624 43.9492 87.0718 44.4883C87.6929 45.0273 88.1909 45.625 88.5659 46.2812C88.9409 46.9375 89.1284 47.6758 89.1284 48.4961C89.1284 49.4688 88.9292 50.3711 88.5308 51.2031C88.1323 52.0352 87.5405 52.7617 86.7554 53.3828C85.9702 53.9922 84.9917 54.4727 83.8198 54.8242C82.6597 55.1758 81.3179 55.3516 79.7944 55.3516ZM116.832 42.8008C116.832 42.4023 116.779 42.0273 116.673 41.6758C116.58 41.3125 116.445 41.002 116.269 40.7441C116.093 40.4746 115.888 40.2637 115.654 40.1113C115.419 39.9473 115.167 39.8652 114.898 39.8652C114.582 39.8652 114.253 39.918 113.914 40.0234C113.574 40.1289 113.234 40.2695 112.894 40.4453C112.566 40.6211 112.255 40.8262 111.962 41.0605C111.669 41.2949 111.412 41.541 111.189 41.7988V55H105.792V42.8008C105.792 42.4023 105.74 42.0273 105.634 41.6758C105.529 41.3125 105.382 41.002 105.195 40.7441C105.019 40.4746 104.814 40.2637 104.58 40.1113C104.345 39.9473 104.105 39.8652 103.859 39.8652C103.566 39.8652 103.25 39.918 102.91 40.0234C102.582 40.1289 102.248 40.2695 101.908 40.4453C101.58 40.6211 101.257 40.8262 100.941 41.0605C100.636 41.2949 100.361 41.541 100.115 41.7988V55H94.6655V38.6348L98.48 36.6309H100.115V38.582C100.97 37.9961 101.855 37.5332 102.769 37.1934C103.695 36.8535 104.58 36.6836 105.423 36.6836C105.892 36.6836 106.361 36.7363 106.83 36.8418C107.31 36.9473 107.767 37.0996 108.201 37.2988C108.646 37.4863 109.056 37.7207 109.431 38.002C109.806 38.2715 110.128 38.582 110.398 38.9336C110.808 38.6055 111.259 38.3008 111.751 38.0195C112.244 37.7383 112.759 37.5039 113.298 37.3164C113.849 37.1172 114.406 36.9648 114.968 36.8594C115.542 36.7422 116.111 36.6836 116.673 36.6836C117.435 36.6836 118.156 36.8301 118.835 37.123C119.527 37.416 120.13 37.8203 120.646 38.3359C121.162 38.8516 121.572 39.4551 121.876 40.1465C122.181 40.8379 122.333 41.582 122.333 42.3789V55H116.832V42.8008ZM128.398 38.6348L132.23 36.6309H133.865V55H128.398V38.6348ZM128.169 30.7246C128.169 30.3613 128.246 30.0156 128.398 29.6875C128.55 29.3594 128.761 29.0781 129.031 28.8438C129.3 28.6094 129.611 28.4219 129.962 28.2812C130.314 28.1406 130.695 28.0703 131.105 28.0703C131.515 28.0703 131.896 28.1406 132.248 28.2812C132.611 28.4219 132.921 28.6094 133.179 28.8438C133.449 29.0781 133.66 29.3594 133.812 29.6875C133.964 30.0156 134.041 30.3613 134.041 30.7246C134.041 31.0879 133.964 31.4336 133.812 31.7617C133.66 32.0781 133.449 32.3535 133.179 32.5879C132.921 32.8223 132.611 33.0098 132.248 33.1504C131.896 33.291 131.515 33.3613 131.105 33.3613C130.695 33.3613 130.314 33.291 129.962 33.1504C129.611 33.0098 129.3 32.8223 129.031 32.5879C128.761 32.3535 128.55 32.0781 128.398 31.7617C128.246 31.4336 128.169 31.0879 128.169 30.7246ZM144.517 55H139.085V29.8281L142.882 27.8242H144.517V55ZM157.841 55.4043C156.564 55.4043 155.363 55.1699 154.238 54.7012C153.113 54.2207 152.134 53.582 151.302 52.7852C150.47 51.9766 149.808 51.0449 149.316 49.9902C148.835 48.9238 148.595 47.7988 148.595 46.6152C148.595 45.1973 148.818 43.8848 149.263 42.6777C149.708 41.459 150.341 40.4043 151.162 39.5137C151.982 38.623 152.96 37.9316 154.097 37.4395C155.246 36.9355 156.523 36.6836 157.929 36.6836C159.183 36.6836 160.332 36.8828 161.375 37.2812C162.417 37.6797 163.308 38.2246 164.046 38.916C164.796 39.6074 165.376 40.4219 165.787 41.3594C166.197 42.2969 166.402 43.2988 166.402 44.3652H153.939C153.986 45.3613 154.132 46.3105 154.378 47.2129C154.636 48.1152 154.976 48.9121 155.398 49.6035C155.82 50.2832 156.312 50.8281 156.875 51.2383C157.449 51.6367 158.082 51.8359 158.773 51.8359C159.371 51.8359 159.957 51.7363 160.531 51.5371C161.117 51.3262 161.656 51.0449 162.148 50.6934C162.64 50.3301 163.068 49.9141 163.431 49.4453C163.794 48.9648 164.058 48.4492 164.222 47.8984L167 48.3379C166.718 49.3105 166.267 50.2246 165.646 51.0801C165.037 51.9355 164.316 52.6855 163.484 53.3301C162.664 53.9746 161.767 54.4844 160.794 54.8594C159.822 55.2227 158.837 55.4043 157.841 55.4043ZM160.144 42.502C160.097 41.9746 159.98 41.4941 159.792 41.0605C159.617 40.6152 159.388 40.2344 159.107 39.918C158.826 39.6016 158.498 39.3613 158.123 39.1973C157.748 39.0215 157.343 38.9336 156.91 38.9336C156.57 38.9336 156.236 39.0215 155.908 39.1973C155.58 39.3613 155.281 39.6016 155.011 39.918C154.753 40.2227 154.531 40.5977 154.343 41.043C154.167 41.4766 154.05 41.9629 153.992 42.502H160.144ZM171.341 31.1641H181.572C182.943 31.1641 184.197 31.3105 185.333 31.6035C186.482 31.8965 187.466 32.3125 188.287 32.8516C189.107 33.3789 189.746 34.0176 190.203 34.7676C190.66 35.5176 190.888 36.3496 190.888 37.2637C190.888 37.8262 190.824 38.3477 190.695 38.8281C190.578 39.3086 190.378 39.7598 190.097 40.1816C189.816 40.6035 189.441 41.0078 188.972 41.3945C188.515 41.7812 187.947 42.1738 187.267 42.5723C187.97 42.7949 188.615 43.0938 189.201 43.4688C189.787 43.832 190.291 44.2656 190.712 44.7695C191.146 45.2617 191.48 45.8125 191.714 46.4219C191.96 47.0195 192.083 47.6582 192.083 48.3379C192.083 49.2754 191.867 50.1484 191.433 50.957C191.011 51.7656 190.402 52.4688 189.605 53.0664C188.82 53.6641 187.871 54.1387 186.757 54.4902C185.656 54.8301 184.431 55 183.083 55H171.341V31.1641ZM177.195 41.5H181.044C181.666 41.5 182.216 41.4062 182.697 41.2188C183.189 41.0195 183.599 40.75 183.927 40.4102C184.267 40.0586 184.525 39.6426 184.701 39.1621C184.876 38.6816 184.964 38.1602 184.964 37.5977C184.964 36.9766 184.853 36.4082 184.63 35.8926C184.408 35.377 184.068 34.9375 183.611 34.5742C183.154 34.1992 182.574 33.9121 181.871 33.7129C181.167 33.502 180.335 33.3965 179.375 33.3965H177.195V41.5ZM177.195 52.5566H180.429C181.378 52.5566 182.199 52.457 182.89 52.2578C183.582 52.0469 184.15 51.7656 184.595 51.4141C185.052 51.0508 185.386 50.623 185.597 50.1309C185.82 49.627 185.931 49.082 185.931 48.4961C185.931 47.8281 185.832 47.2129 185.632 46.6504C185.433 46.0762 185.105 45.5781 184.648 45.1562C184.203 44.7344 183.611 44.4062 182.873 44.1719C182.146 43.9375 181.255 43.8203 180.201 43.8203H177.195V52.5566ZM196.812 38.6348L200.644 36.6309H202.279V55H196.812V38.6348ZM196.583 30.7246C196.583 30.3613 196.66 30.0156 196.812 29.6875C196.964 29.3594 197.175 29.0781 197.445 28.8438C197.714 28.6094 198.025 28.4219 198.376 28.2812C198.728 28.1406 199.109 28.0703 199.519 28.0703C199.929 28.0703 200.31 28.1406 200.662 28.2812C201.025 28.4219 201.335 28.6094 201.593 28.8438C201.863 29.0781 202.074 29.3594 202.226 29.6875C202.378 30.0156 202.455 30.3613 202.455 30.7246C202.455 31.0879 202.378 31.4336 202.226 31.7617C202.074 32.0781 201.863 32.3535 201.593 32.5879C201.335 32.8223 201.025 33.0098 200.662 33.1504C200.31 33.291 199.929 33.3613 199.519 33.3613C199.109 33.3613 198.728 33.291 198.376 33.1504C198.025 33.0098 197.714 32.8223 197.445 32.5879C197.175 32.3535 196.964 32.0781 196.812 31.7617C196.66 31.4336 196.583 31.0879 196.583 30.7246ZM212.632 43.1699L219.699 37H223.636L215.761 43.8906L225.324 55H218.873L212.632 47.7754V55H207.148V29.8281L210.998 27.8242H212.632V43.1699ZM235.607 55.4043C234.33 55.4043 233.128 55.1699 232.003 54.7012C230.878 54.2207 229.9 53.582 229.068 52.7852C228.236 51.9766 227.574 51.0449 227.082 49.9902C226.601 48.9238 226.361 47.7988 226.361 46.6152C226.361 45.1973 226.583 43.8848 227.029 42.6777C227.474 41.459 228.107 40.4043 228.927 39.5137C229.748 38.623 230.726 37.9316 231.863 37.4395C233.011 36.9355 234.289 36.6836 235.695 36.6836C236.949 36.6836 238.097 36.8828 239.14 37.2812C240.183 37.6797 241.074 38.2246 241.812 38.916C242.562 39.6074 243.142 40.4219 243.552 41.3594C243.962 42.2969 244.167 43.2988 244.167 44.3652H231.705C231.751 45.3613 231.898 46.3105 232.144 47.2129C232.402 48.1152 232.742 48.9121 233.164 49.6035C233.585 50.2832 234.078 50.8281 234.64 51.2383C235.214 51.6367 235.847 51.8359 236.539 51.8359C237.136 51.8359 237.722 51.7363 238.296 51.5371C238.882 51.3262 239.421 51.0449 239.914 50.6934C240.406 50.3301 240.833 49.9141 241.197 49.4453C241.56 48.9648 241.824 48.4492 241.988 47.8984L244.765 48.3379C244.484 49.3105 244.033 50.2246 243.412 51.0801C242.802 51.9355 242.082 52.6855 241.25 53.3301C240.429 53.9746 239.533 54.4844 238.56 54.8594C237.587 55.2227 236.603 55.4043 235.607 55.4043ZM237.91 42.502C237.863 41.9746 237.746 41.4941 237.558 41.0605C237.382 40.6152 237.154 40.2344 236.873 39.918C236.591 39.6016 236.263 39.3613 235.888 39.1973C235.513 39.0215 235.109 38.9336 234.675 38.9336C234.335 38.9336 234.001 39.0215 233.673 39.1973C233.345 39.3613 233.046 39.6016 232.777 39.918C232.519 40.2227 232.296 40.5977 232.109 41.043C231.933 41.4766 231.816 41.9629 231.757 42.502H237.91Z" fill="white"/>
<path d="M236.243 11.8869C231.846 5.41441 240.169 9.46532 238.059 11.599C236.174 13.5045 231.221 8 237.454 8" stroke="#FF5964" stroke-width="5" stroke-linecap="round"/>
<path d="M250.25 2.92505C250.133 2.59266 249.046 0.24908 249.782 0.030596C250.152 -0.0791501 250.59 0.117095 250.865 0.447398C251.369 1.05374 251.7 3.13805 251.064 3.75866C249.866 4.92899 248.71 1.49752 249.938 0.841044" stroke="#FF5964" stroke-width="5" stroke-linecap="round"/>
<path d="M235.323 23.929C236.693 30.2633 244.975 30.5862 249.868 28.4434C256.005 25.7555 257.992 18.3967 257.304 12.1555" stroke="#FF5964" stroke-width="5" stroke-linecap="round"/>
</svg>

