<svg width="400" height="67" viewBox="0 0 400 67" fill="none" xmlns="http://www.w3.org/2000/svg">
<path d="M50.7 39.2C51.2667 39.2 51.55 39.9667 51.55 41.5C51.55 42.3333 51.2 43.35 50.5 44.55C49.8 45.7167 48.8833 46.8 47.75 47.8C46.65 48.7667 45.4167 49.5667 44.05 50.2C42.6833 50.8333 41.2333 51.15 39.7 51.15C38.2 51.15 37.0167 50.6667 36.15 49.7C35.3167 48.7 34.9 47.6 34.9 46.4C34.9 45.1667 35.1 43.7833 35.5 42.25C35.9 40.7167 36.3333 39.1167 36.8 37.45C38.0667 33.0167 38.7167 29.9 38.75 28.1C38.75 27.3333 38.65 26.75 38.45 26.35C38.25 25.9167 37.8667 25.7 37.3 25.7C36.3 25.7 35.2333 26.3 34.1 27.5C32.9667 28.7 31.9 30.2333 30.9 32.1C28.6 36.3667 27.3833 40.5333 27.25 44.6C27.3167 45.0667 27.3833 45.5333 27.45 46C27.5167 46.4667 27.55 46.9667 27.55 47.5C27.55 48.5667 27.0167 49.55 25.95 50.45C24.9167 51.3167 23.75 51.75 22.45 51.75C21.6833 51.75 21.1167 51.3833 20.75 50.65C20.3833 49.8833 20.2 48.95 20.2 47.85C20.2 46.75 20.45 45.25 20.95 43.35C21.45 41.45 22 39.4333 22.6 37.3C24.2 31.6667 25.0167 27.4667 25.05 24.7C25.05 23.3 24.8667 22.2 24.5 21.4C24.1667 20.6 23.5 20.2 22.5 20.2C20.7 20.2 18.9167 21.4833 17.15 24.05C15.3833 26.6167 13.8 30.6 12.4 36C12.0333 37.4 11.75 38.6167 11.55 39.65L11.5 40.6C12.1333 43.6667 12.45 45.6667 12.45 46.6C12.45 48.5333 11.7667 49.8333 10.4 50.5C9.76667 50.8 9.15 51.0833 8.55 51.35C7.98333 51.6167 7.36667 51.75 6.7 51.75C5.03333 51.75 4.2 50.1667 4.2 47C4.2 43.8 5.08333 37.5667 6.85 28.3C7.48333 24.9667 7.8 23.1 7.8 22.7C7.8 20 7.11667 18.65 5.75 18.65C5.28333 18.65 4.85 18.7833 4.45 19.05C4.08333 19.3167 3.7 19.6 3.3 19.9C2.93333 20.2 2.55 20.4833 2.15 20.75C1.75 21.0167 1.28333 21.15 0.75 21.15C0.25 21.15 0 20.7 0 19.8C0 17.9667 0.85 16.4667 2.55 15.3C4.18333 14.1 6.16667 13.5 8.5 13.5C11.5 13.5 13.2667 14.9 13.8 17.7C13.9333 18.5333 14.0333 19.4167 14.1 20.35C16.5667 15.7167 19.6833 13.4 23.45 13.4C27.55 13.4 29.9 15.3667 30.5 19.3C30.7 20.4333 30.7833 21.65 30.75 22.95V23.35C32.9167 20.35 35.4833 18.85 38.45 18.85C42.65 18.85 44.75 21.3833 44.75 26.45C44.75 28.65 44.4 31.2333 43.7 34.2C43.0333 37.1333 42.5333 39.25 42.2 40.55C41.9 41.8167 41.75 42.8 41.75 43.5C41.75 44.7667 42.1833 45.4 43.05 45.4C43.95 45.4 46.0667 43.6667 49.4 40.2C50 39.5333 50.4333 39.2 50.7 39.2ZM62.5086 47.35C60.8419 49.65 58.6086 50.8 55.8086 50.8C53.5419 50.8 51.7253 50.3333 50.3586 49.4C49.0253 48.4333 48.3586 46.9167 48.3586 44.85C48.3586 43.9833 48.4753 43.1833 48.7086 42.45C48.9753 41.7167 49.3919 40.8167 49.9586 39.75L51.4086 27.9C52.4419 27.1 53.8419 26.7 55.6086 26.7C57.1086 26.7 57.9586 27.7 58.1586 29.7C58.2253 30.3 58.2586 31.0167 58.2586 31.85C58.2586 32.65 58.1253 33.5 57.8586 34.4C56.5253 39 55.8753 42.0833 55.9086 43.65C55.9086 44.85 56.6086 45.45 58.0086 45.45C59.4086 45.45 60.4419 45 61.1086 44.1C61.7753 43.2 62.3419 42.0833 62.8086 40.75C63.6753 37.05 64.4753 34 65.2086 31.6C65.9753 29.2 66.4586 27.7667 66.6586 27.3C66.9919 26.5 67.6253 26.0833 68.5586 26.05C69.4919 26.0833 70.3753 26.75 71.2086 28.05C72.0419 29.3167 72.4586 30.3 72.4586 31C72.3919 33.3333 70.9419 39.2167 68.1086 48.65C70.2753 46.95 72.4253 44.8667 74.5586 42.4C75.2919 41.5333 75.9086 40.8167 76.4086 40.25C76.9086 39.65 77.3086 39.35 77.6086 39.35C78.0753 39.35 78.3086 39.8833 78.3086 40.95C78.3086 43.05 77.1253 45.5 74.7586 48.3C72.4253 51.1 69.5586 53.2833 66.1586 54.85C65.7586 56.1833 65.3253 57.45 64.8586 58.65C64.3919 59.85 63.7919 60.9 63.0586 61.8C61.4586 63.7333 59.0253 64.7 55.7586 64.7C53.5586 64.7 51.6753 64.0667 50.1086 62.8C48.5753 61.5333 47.8086 59.95 47.8086 58.05C47.8086 56.9833 48.1586 56.1333 48.8586 55.5C49.5919 54.8667 50.5753 54.3333 51.8086 53.9C53.0753 53.5 54.5419 53.1333 56.2086 52.8C57.8753 52.5 59.6586 52.1167 61.5586 51.65C62.0253 49.65 62.3419 48.2167 62.5086 47.35ZM55.7086 60.85C57.2753 60.85 58.6919 59.4833 59.9586 56.75C58.7586 56.9833 57.6919 57.15 56.7586 57.25C55.8253 57.3833 55.0253 57.5 54.3586 57.6C53.0253 57.8 52.3753 58.15 52.4086 58.65C52.4086 59.2833 52.7753 59.8167 53.5086 60.25C54.2753 60.6833 55.0086 60.8833 55.7086 60.85ZM110.386 48.8C110.386 50.7667 108.469 51.75 104.636 51.75C103.803 51.75 103.303 51.3333 103.136 50.5C103.003 49.6333 102.936 48.5667 102.936 47.3C102.936 46.0333 103.019 44.6833 103.186 43.25C103.386 41.7833 103.636 40.2 103.936 38.5C104.503 35.2333 105.303 31.7167 106.336 27.95C107.403 24.15 108.453 21.2167 109.486 19.15C107.386 19.2833 105.303 19.6667 103.236 20.3C101.169 20.9 99.7026 21.3333 98.8359 21.6C97.9693 21.8333 97.2526 21.95 96.6859 21.95C96.1193 21.95 95.8359 21.7667 95.8359 21.4C95.8359 20.9667 96.1693 20.3333 96.8359 19.5C97.5026 18.6333 98.4526 17.7667 99.6859 16.9C102.819 14.7667 106.303 13.6833 110.136 13.65L126.586 13.8C127.486 13.8 127.936 14.15 127.936 14.85C127.936 15.05 127.803 15.4167 127.536 15.95C127.269 16.45 127.036 17 126.836 17.6C126.403 18.8 125.486 19.4 124.086 19.4C122.719 19.4 119.436 19.3 114.236 19.1C114.103 20.5667 113.836 22.45 113.436 24.75C113.036 27.0167 112.603 29.5 112.136 32.2C111.003 39.1 110.419 44.6333 110.386 48.8ZM128.722 42.6L129.022 48.7C129.022 49.5 128.605 50.2167 127.772 50.85C126.939 51.4833 125.805 51.8 124.372 51.8C123.539 51.8 122.955 51.3667 122.622 50.5C122.322 49.6333 122.172 48.3667 122.172 46.7C122.172 43.2 122.339 40.4667 122.672 38.5C123.039 36.5 123.739 34.4833 124.772 32.45C123.239 30.9833 122.472 29.7167 122.472 28.65C122.472 26.4167 123.672 25.3 126.072 25.3C127.305 25.3 128.389 25.95 129.322 27.25C129.989 28.15 130.472 29.2 130.772 30.4C131.239 30.5667 131.822 30.65 132.522 30.65C133.489 30.65 134.605 30.3333 135.872 29.7L137.172 29.05C137.572 28.85 137.922 28.75 138.222 28.75C139.189 28.75 140.155 30.1667 141.122 33C140.822 34.3 140.489 35.55 140.122 36.75C139.789 37.95 139.389 39.4 138.922 41.1C138.455 42.8 138.205 43.95 138.172 44.55C138.172 45.1167 138.355 45.4 138.722 45.4C139.222 45.4 139.839 45.0833 140.572 44.45C141.305 43.8167 142.039 43.1333 142.772 42.4C143.505 41.6333 144.172 40.9333 144.772 40.3C145.405 39.6667 145.839 39.35 146.072 39.35C146.539 39.35 146.772 39.9167 146.772 41.05C146.772 43.35 145.755 45.6167 143.722 47.85C141.722 50.0833 139.422 51.1833 136.822 51.15C135.289 51.15 134.139 50.5333 133.372 49.3C132.605 48.0667 132.205 46.5667 132.172 44.8C132.172 41.3 132.955 37.9833 134.522 34.85C133.789 35.15 132.955 35.3 132.022 35.3C131.122 35.3 130.472 35.2667 130.072 35.2C129.772 36.4667 129.472 37.75 129.172 39.05C128.872 40.3167 128.722 41.5 128.722 42.6ZM174.973 39.2C175.573 39.2 175.873 39.9667 175.873 41.5C175.873 42.3333 175.523 43.35 174.823 44.55C174.123 45.7167 173.207 46.8 172.073 47.8C170.973 48.7667 169.74 49.5667 168.373 50.2C167.007 50.8333 165.673 51.15 164.373 51.15C162.607 51.15 161.423 49.6 160.823 46.5C159.957 47.9333 158.823 49.1167 157.423 50.05C156.023 50.95 154.14 51.4 151.773 51.4C149.44 51.4 147.557 50.6667 146.123 49.2C144.69 47.7333 143.99 45.95 144.023 43.85C144.023 38.1833 145.907 33.7167 149.673 30.45C151.273 29.0833 152.757 28.1833 154.123 27.75C155.523 27.3167 156.99 27.1 158.523 27.1C160.057 27.1 161.307 27.3667 162.273 27.9C162.74 26.9333 163.273 26.45 163.873 26.45C165.04 26.45 166.14 26.9667 167.173 28C168.24 29 168.773 29.95 168.773 30.85C168.307 31.95 167.623 33.2667 166.723 34.8C166.457 36.3333 166.323 38.4833 166.323 41.25C166.323 44.0167 166.673 45.4 167.373 45.4C168.24 45.4 170.34 43.6667 173.673 40.2C174.273 39.5333 174.707 39.2 174.973 39.2ZM151.373 42.2C151.373 44.7667 152.323 46.05 154.223 46.05C156.257 46.0167 157.94 44.9333 159.273 42.8C159.74 42.0667 160.123 41.1667 160.423 40.1C160.423 36.3667 160.757 33.1667 161.423 30.5C158.723 31.0333 156.373 32.3333 154.373 34.4C152.373 36.4667 151.373 39.0667 151.373 42.2ZM181.275 29C181.275 31.2333 180.875 33.7667 180.075 36.6C180.142 37.6667 180.175 38.7 180.175 39.7C180.175 40.7 180.242 41.5667 180.375 42.3C180.875 43.6333 181.508 44.45 182.275 44.75C182.942 44.75 183.675 44.1833 184.475 43.05C185.275 41.8833 186.092 40.5 186.925 38.9C186.525 37.3667 186.325 35.9167 186.325 34.55C186.325 32.15 186.692 30.4 187.425 29.3C188.325 27.9 189.692 27.2 191.525 27.2C193.358 27.2 194.575 27.9 195.175 29.3C195.408 29.8333 195.525 30.4333 195.525 31.1C195.525 32.3 195.225 33.5333 194.625 34.8C194.025 36.0333 193.058 37.6667 191.725 39.7C192.325 41.4667 193.225 42.35 194.425 42.35C195.892 42.3167 197.158 41.8 198.225 40.8C198.625 40.4 198.958 40.05 199.225 39.75C199.525 39.45 199.825 39.3 200.125 39.3C200.592 39.3 200.825 39.85 200.825 40.95C200.825 43.0167 200.225 44.5333 199.025 45.5C197.858 46.4333 196.375 46.9 194.575 46.9C192.208 46.9 190.325 45.8667 188.925 43.8C185.025 48.8667 181.758 51.4 179.125 51.4C178.092 51.4 177.075 49.9333 176.075 47C175.075 44.0667 174.308 40.1 173.775 35.1C173.375 31.9333 173.608 29.6667 174.475 28.3C175.208 27.2333 176.642 26.7 178.775 26.7C179.575 26.7 180.192 26.95 180.625 27.45C181.058 27.9167 181.275 28.4333 181.275 29ZM210.22 45.55C212.82 45.55 215.337 44.5167 217.77 42.45C218.67 41.6833 219.404 40.9833 219.97 40.35C220.537 39.6833 220.97 39.35 221.27 39.35C221.737 39.35 221.97 39.8167 221.97 40.75C221.97 41.6833 221.72 42.7333 221.22 43.9C220.72 45.0333 219.887 46.15 218.72 47.25C215.854 49.95 211.92 51.3 206.92 51.3C202.954 51.3 200.254 49.8667 198.82 47C198.32 46 198.07 44.5667 198.07 42.7C198.07 40.8333 198.437 38.9 199.17 36.9C199.904 34.8667 200.87 33.1167 202.07 31.65C203.304 30.1833 204.72 29.05 206.32 28.25C207.92 27.4167 209.62 27 211.42 27C213.254 27 214.654 27.45 215.62 28.35C216.62 29.25 217.12 30.4167 217.12 31.85C217.12 33.2833 216.754 34.4667 216.02 35.4C215.32 36.3 214.404 37.0667 213.27 37.7C212.137 38.3 210.87 38.85 209.47 39.35C208.104 39.8167 206.754 40.35 205.42 40.95V42.2C205.454 43.4 205.954 44.25 206.92 44.75C207.887 45.25 208.987 45.5167 210.22 45.55ZM209.37 31.45C207.637 31.45 206.437 33.4667 205.77 37.5C206.47 37.0333 207.12 36.6167 207.72 36.25C208.354 35.8833 208.904 35.5333 209.37 35.2C210.37 34.4667 210.887 33.6333 210.92 32.7C210.92 31.8667 210.404 31.45 209.37 31.45ZM230.619 51.15C225.852 51.1833 222.602 49.4 220.869 45.8C220.269 44.5333 219.969 42.95 219.969 41.05C219.969 39.1167 220.135 37.0667 220.469 34.9C221.135 30.5667 222.419 26.5667 224.319 22.9C225.285 21.0333 226.369 19.4333 227.569 18.1C230.202 15.1667 233.135 13.7167 236.369 13.75C237.802 13.75 238.919 14.15 239.719 14.95C240.552 15.7167 240.969 16.8333 240.969 18.3C240.969 19.7667 240.535 21.25 239.669 22.75C238.802 24.2167 237.685 25.75 236.319 27.35C234.985 28.9167 233.502 30.5667 231.869 32.3C230.235 34.0333 228.635 35.9167 227.069 37.95V39.95C227.069 41.8167 227.469 43.1833 228.269 44.05C229.069 44.9167 230.002 45.35 231.069 45.35C233.935 45.35 236.469 43.9333 238.669 41.1C239.569 39.9333 240.252 39.35 240.719 39.35C241.185 39.35 241.419 39.9167 241.419 41.05C241.419 42.1833 241.102 43.35 240.469 44.55C239.869 45.7167 239.069 46.8 238.069 47.8C237.069 48.7667 235.919 49.5667 234.619 50.2C233.319 50.8333 231.985 51.15 230.619 51.15ZM233.319 24.3C234.019 23.4333 234.569 22.65 234.969 21.95C235.369 21.25 235.569 20.5333 235.569 19.8C235.569 19.0333 235.302 18.65 234.769 18.65C233.602 18.65 232.302 19.85 230.869 22.25C229.469 24.65 228.419 27.8 227.719 31.7C228.852 29.9667 229.885 28.5167 230.819 27.35C231.785 26.1833 232.619 25.1667 233.319 24.3ZM268.432 48.8C268.432 50.7667 266.516 51.75 262.682 51.75C261.849 51.75 261.349 51.3333 261.182 50.5C261.049 49.6333 260.982 48.4333 260.982 46.9C260.982 43.6667 261.632 39.6667 262.932 34.9C265.099 27.0333 267.416 22.4 269.882 21C270.216 20.8 270.582 20.7 270.982 20.7C271.382 20.7 271.582 21.35 271.582 22.65C271.582 23.95 271.516 25.1 271.382 26.1C271.116 28.1 270.632 30.6833 269.932 33.85C269.266 37.0167 268.932 38.8833 268.932 39.45L268.432 48.8ZM271.832 35.35C271.832 34.9167 272.066 34.6333 272.532 34.5C273.032 34.3667 273.649 34.25 274.382 34.15C275.116 34.0167 275.916 33.8333 276.782 33.6C277.649 33.3667 278.449 32.9333 279.182 32.3C280.882 30.8333 281.732 28.3833 281.732 24.95C281.732 22.75 280.982 21.0667 279.482 19.9C278.016 18.7333 275.882 18.15 273.082 18.15C270.316 18.15 267.716 18.7333 265.282 19.9C264.382 20.3333 263.566 20.7333 262.832 21.1C262.132 21.4667 261.482 21.65 260.882 21.65C260.282 21.65 259.982 21.4667 259.982 21.1C259.982 20.5333 260.532 19.6 261.632 18.3C262.732 17.1 264.466 15.9833 266.832 14.95C269.232 13.9167 271.749 13.4 274.382 13.4C279.349 13.3667 283.216 14.5333 285.982 16.9C288.382 18.9667 289.582 21.65 289.582 24.95C289.582 28.2167 288.399 31.15 286.032 33.75C283.666 36.3167 280.699 37.6 277.132 37.6C273.599 37.6 271.832 36.85 271.832 35.35ZM309.298 46.75C306.664 49.85 303.498 51.4 299.798 51.4C296.131 51.4 293.381 50.4667 291.548 48.6C289.714 46.7 288.814 44.35 288.848 41.55C288.814 37.5833 290.064 34.1667 292.598 31.3C295.131 28.4333 298.448 27 302.548 27C304.414 27 305.914 27.2333 307.048 27.7C309.014 28.5 309.998 29.25 309.998 29.95C309.998 30.4833 308.614 30.7667 305.848 30.8C303.114 30.8 300.814 31.75 298.948 33.65C297.114 35.5167 296.198 37.8833 296.198 40.75C296.198 42.25 296.631 43.5167 297.498 44.55C298.398 45.55 299.648 46.05 301.248 46.05C302.881 46.05 304.231 45.7167 305.298 45.05C302.931 43.45 301.748 41.1333 301.748 38.1C301.714 36.5 302.281 35.05 303.448 33.75C304.648 32.4167 306.164 31.75 307.998 31.75C309.864 31.7167 311.198 32.2167 311.998 33.25C312.798 34.2833 313.198 35.6167 313.198 37.25C313.198 38.85 312.814 40.55 312.048 42.35H312.348C313.814 42.3167 315.081 41.8 316.148 40.8C316.548 40.4 316.881 40.05 317.148 39.75C317.448 39.45 317.748 39.3 318.048 39.3C318.514 39.3 318.748 39.85 318.748 40.95C318.748 42.9833 318.148 44.5167 316.948 45.55C315.748 46.55 314.414 47.05 312.948 47.05C311.514 47.05 310.298 46.95 309.298 46.75ZM308.848 40.95C309.414 39.75 309.698 38.5833 309.698 37.45C309.698 36.3167 309.331 35.75 308.598 35.75C308.298 35.75 308.048 35.9667 307.848 36.4C307.648 36.8333 307.548 37.25 307.548 37.65C307.548 38.9833 307.981 40.0833 308.848 40.95ZM336.096 39.2C336.696 39.2 336.996 39.7167 336.996 40.75C336.996 41.75 336.729 42.8333 336.196 44C335.696 45.1667 334.913 46.3 333.846 47.4C332.813 48.4667 331.479 49.3833 329.846 50.15C328.213 50.9167 326.279 51.3 324.046 51.3C321.846 51.3 319.913 50.65 318.246 49.35C316.579 48.0167 315.746 46.1167 315.746 43.65C315.746 41.15 316.129 38.9 316.896 36.9C317.696 34.8667 318.729 33.1167 319.996 31.65C321.296 30.1833 322.763 29.05 324.396 28.25C326.029 27.4167 327.579 27 329.046 27C331.613 27 332.896 28.0167 332.896 30.05C332.896 31.2167 332.646 32.15 332.146 32.85C331.679 33.55 331.196 33.9 330.696 33.9C330.029 33.9 329.446 33.6667 328.946 33.2C328.446 32.7333 327.896 32.5 327.296 32.5C326.696 32.4667 326.113 32.75 325.546 33.35C325.013 33.95 324.563 34.7167 324.196 35.65C323.463 37.5167 323.096 39.7 323.096 42.2C323.129 43.4 323.679 44.3 324.746 44.9C325.479 45.3 326.346 45.5167 327.346 45.55C328.346 45.55 329.296 45.2167 330.196 44.55C331.129 43.8833 331.979 43.1667 332.746 42.4C333.513 41.6 334.179 40.8667 334.746 40.2C335.346 39.5333 335.796 39.2 336.096 39.2ZM349.108 40.05C350.008 43.6167 351.524 45.4 353.658 45.4C354.691 45.4 355.624 45.0833 356.458 44.45C357.291 43.8167 358.041 43.1333 358.708 42.4C359.374 41.6333 359.958 40.9333 360.458 40.3C360.958 39.6667 361.424 39.35 361.858 39.35C362.291 39.35 362.508 39.9167 362.508 41.05C362.508 43.4167 361.408 45.7 359.208 47.9C357.008 50.1 354.541 51.1833 351.808 51.15C349.108 51.15 346.691 48.7667 344.558 44C343.958 42.6667 343.391 41.3167 342.858 39.95L342.508 46.8C342.508 47.4333 342.474 48.0667 342.408 48.7C342.341 49.3 342.058 49.8 341.558 50.2C340.258 51.2333 338.941 51.75 337.608 51.75C336.041 51.75 335.258 50.1333 335.258 46.9C335.258 42.2333 335.808 37.35 336.908 32.25C338.008 27.15 339.074 23.3167 340.108 20.75C341.174 18.15 341.991 16.4167 342.558 15.55C343.158 14.6833 343.624 14.15 343.958 13.95C344.291 13.75 344.658 13.65 345.058 13.65C345.491 13.65 345.941 13.8667 346.408 14.3C346.874 14.7 347.374 15.3333 347.908 16.2C348.441 17.0333 348.708 17.8667 348.708 18.7C348.741 19.5 348.608 20.3 348.308 21.1C348.041 21.8667 347.674 22.6333 347.208 23.4C346.741 24.1333 346.224 24.9 345.658 25.7C345.091 26.4667 344.524 27.3 343.958 28.2L343.458 32.4C344.624 29.9667 346.341 28.3333 348.608 27.5C349.408 27.2 350.341 27.05 351.408 27.05C353.541 27.05 355.174 27.5667 356.308 28.6C357.441 29.6 358.008 31.0833 358.008 33.05C358.008 35.0167 357.024 36.6833 355.058 38.05C353.091 39.4167 351.108 40.0833 349.108 40.05ZM351.008 34.2C351.008 33 350.324 32.4 348.958 32.4C347.591 32.4 346.108 33.7167 344.508 36.35C344.041 37.1167 343.641 37.9 343.308 38.7C346.774 38.5 349.141 37.5667 350.408 35.9C350.808 35.3667 351.008 34.8 351.008 34.2ZM371.646 45.55C374.246 45.55 376.763 44.5167 379.196 42.45C380.096 41.6833 380.829 40.9833 381.396 40.35C381.963 39.6833 382.396 39.35 382.696 39.35C383.163 39.35 383.396 39.8167 383.396 40.75C383.396 41.6833 383.146 42.7333 382.646 43.9C382.146 45.0333 381.313 46.15 380.146 47.25C377.279 49.95 373.346 51.3 368.346 51.3C364.379 51.3 361.679 49.8667 360.246 47C359.746 46 359.496 44.5667 359.496 42.7C359.496 40.8333 359.863 38.9 360.596 36.9C361.329 34.8667 362.296 33.1167 363.496 31.65C364.729 30.1833 366.146 29.05 367.746 28.25C369.346 27.4167 371.046 27 372.846 27C374.679 27 376.079 27.45 377.046 28.35C378.046 29.25 378.546 30.4167 378.546 31.85C378.546 33.2833 378.179 34.4667 377.446 35.4C376.746 36.3 375.829 37.0667 374.696 37.7C373.563 38.3 372.296 38.85 370.896 39.35C369.529 39.8167 368.179 40.35 366.846 40.95V42.2C366.879 43.4 367.379 44.25 368.346 44.75C369.313 45.25 370.413 45.5167 371.646 45.55ZM370.796 31.45C369.063 31.45 367.863 33.4667 367.196 37.5C367.896 37.0333 368.546 36.6167 369.146 36.25C369.779 35.8833 370.329 35.5333 370.796 35.2C371.796 34.4667 372.313 33.6333 372.346 32.7C372.346 31.8667 371.829 31.45 370.796 31.45ZM383.095 48.3C382.728 47.4 382.461 46.3667 382.295 45.2C382.128 44 382.045 42.3333 382.045 40.2C382.045 38.0667 382.445 35.1833 383.245 31.55H380.995C380.595 31.55 380.395 31.3833 380.395 31.05C380.395 30.25 380.461 29.6 380.595 29.1C380.761 28.5667 381.128 27.9667 381.695 27.3H382.895C383.361 27.3 383.861 27.2833 384.395 27.25C385.995 22.1167 387.628 19.55 389.295 19.55C390.628 19.5833 391.561 20.4333 392.095 22.1C392.228 22.5667 392.378 23.0667 392.545 23.6L390.495 27.2C392.828 27.2667 394.295 27.3 394.895 27.3C395.528 27.3 395.861 27.3667 395.895 27.5C395.961 27.6 395.995 27.7667 395.995 28C395.995 28.6 395.845 29.35 395.545 30.25C395.278 31.15 394.961 31.5833 394.595 31.55L389.595 31.3C388.895 35.3667 388.545 38.7333 388.545 41.4C388.545 44.0667 388.928 45.4 389.695 45.4C390.328 45.4 391.478 44.8833 393.145 43.85C394.811 42.7833 396.011 41.7667 396.745 40.8C397.478 39.8333 398.078 39.35 398.545 39.35C399.011 39.35 399.245 39.9167 399.245 41.05C399.245 42.1833 398.845 43.35 398.045 44.55C397.245 45.7167 396.228 46.8 394.995 47.8C393.795 48.7667 392.445 49.5667 390.945 50.2C389.478 50.8333 388.195 51.15 387.095 51.15C385.995 51.15 385.145 50.9 384.545 50.4C383.978 49.8667 383.495 49.1667 383.095 48.3Z" fill="#4E4E4E"/>
</svg>
