<svg width="512" height="86" viewBox="0 0 512 86" fill="none" xmlns="http://www.w3.org/2000/svg">
<path d="M64.896 50.896C65.6213 50.896 65.984 51.8773 65.984 53.84C65.984 54.9067 65.536 56.208 64.64 57.744C63.744 59.2373 62.5707 60.624 61.12 61.904C59.712 63.1413 58.1333 64.1653 56.384 64.976C54.6347 65.7867 52.7787 66.192 50.816 66.192C48.896 66.192 47.3813 65.5733 46.272 64.336C45.2053 63.056 44.672 61.648 44.672 60.112C44.672 58.5333 44.928 56.7627 45.44 54.8C45.952 52.8373 46.5067 50.7893 47.104 48.656C48.7253 42.9813 49.5573 38.992 49.6 36.688C49.6 35.7067 49.472 34.96 49.216 34.448C48.96 33.8933 48.4693 33.616 47.744 33.616C46.464 33.616 45.0987 34.384 43.648 35.92C42.1973 37.456 40.832 39.4187 39.552 41.808C36.608 47.2693 35.0507 52.6027 34.88 57.808C34.9653 58.4053 35.0507 59.0027 35.136 59.6C35.2213 60.1973 35.264 60.8373 35.264 61.52C35.264 62.8853 34.5813 64.144 33.216 65.296C31.8933 66.4053 30.4 66.96 28.736 66.96C27.7547 66.96 27.0293 66.4907 26.56 65.552C26.0907 64.5707 25.856 63.376 25.856 61.968C25.856 60.56 26.176 58.64 26.816 56.208C27.456 53.776 28.16 51.1947 28.928 48.464C30.976 41.2533 32.0213 35.8773 32.064 32.336C32.064 30.544 31.8293 29.136 31.36 28.112C30.9333 27.088 30.08 26.576 28.8 26.576C26.496 26.576 24.2133 28.2187 21.952 31.504C19.6907 34.7893 17.664 39.888 15.872 46.8C15.4027 48.592 15.04 50.1493 14.784 51.472L14.72 52.688C15.5307 56.6133 15.936 59.1733 15.936 60.368C15.936 62.8427 15.0613 64.5067 13.312 65.36C12.5013 65.744 11.712 66.1067 10.944 66.448C10.2187 66.7893 9.42933 66.96 8.576 66.96C6.44267 66.96 5.376 64.9333 5.376 60.88C5.376 56.784 6.50667 48.8053 8.768 36.944C9.57867 32.6773 9.984 30.288 9.984 29.776C9.984 26.32 9.10933 24.592 7.36 24.592C6.76267 24.592 6.208 24.7627 5.696 25.104C5.22667 25.4453 4.736 25.808 4.224 26.192C3.75467 26.576 3.264 26.9387 2.752 27.28C2.24 27.6213 1.64267 27.792 0.96 27.792C0.32 27.792 0 27.216 0 26.064C0 23.7173 1.088 21.7973 3.264 20.304C5.35467 18.768 7.89333 18 10.88 18C14.72 18 16.9813 19.792 17.664 23.376C17.8347 24.4427 17.9627 25.5733 18.048 26.768C21.2053 20.8373 25.1947 17.872 30.016 17.872C35.264 17.872 38.272 20.3893 39.04 25.424C39.296 26.8747 39.4027 28.432 39.36 30.096V30.608C42.1333 26.768 45.4187 24.848 49.216 24.848C54.592 24.848 57.28 28.0907 57.28 34.576C57.28 37.392 56.832 40.6987 55.936 44.496C55.0827 48.2507 54.4427 50.96 54.016 52.624C53.632 54.2453 53.44 55.504 53.44 56.4C53.44 58.0213 53.9947 58.832 55.104 58.832C56.256 58.832 58.9653 56.6133 63.232 52.176C64 51.3227 64.5547 50.896 64.896 50.896ZM80.011 61.328C77.8777 64.272 75.019 65.744 71.435 65.744C68.5337 65.744 66.2083 65.1467 64.459 63.952C62.7523 62.7147 61.899 60.7733 61.899 58.128C61.899 57.0187 62.0483 55.9947 62.347 55.056C62.6883 54.1173 63.2217 52.9653 63.947 51.6L65.803 36.432C67.1257 35.408 68.9177 34.896 71.179 34.896C73.099 34.896 74.187 36.176 74.443 38.736C74.5283 39.504 74.571 40.4213 74.571 41.488C74.571 42.512 74.4003 43.6 74.059 44.752C72.3523 50.64 71.5203 54.5867 71.563 56.592C71.563 58.128 72.459 58.896 74.251 58.896C76.043 58.896 77.3657 58.32 78.219 57.168C79.0723 56.016 79.7977 54.5867 80.395 52.88C81.5043 48.144 82.5283 44.24 83.467 41.168C84.4483 38.096 85.067 36.2613 85.323 35.664C85.7497 34.64 86.5603 34.1067 87.755 34.064C88.9497 34.1067 90.0803 34.96 91.147 36.624C92.2137 38.2453 92.747 39.504 92.747 40.4C92.6617 43.3867 90.8057 50.9173 87.179 62.992C89.9523 60.816 92.7043 58.1493 95.435 54.992C96.3737 53.8827 97.163 52.9653 97.803 52.24C98.443 51.472 98.955 51.088 99.339 51.088C99.9363 51.088 100.235 51.7707 100.235 53.136C100.235 55.824 98.7203 58.96 95.691 62.544C92.7043 66.128 89.035 68.9227 84.683 70.928C84.171 72.6347 83.6163 74.256 83.019 75.792C82.4217 77.328 81.6537 78.672 80.715 79.824C78.667 82.2987 75.5523 83.536 71.371 83.536C68.555 83.536 66.1443 82.7253 64.139 81.104C62.1763 79.4827 61.195 77.456 61.195 75.024C61.195 73.6587 61.643 72.5707 62.539 71.76C63.4777 70.9493 64.7363 70.2667 66.315 69.712C67.9363 69.2 69.8137 68.7307 71.947 68.304C74.0803 67.92 76.363 67.4293 78.795 66.832C79.3923 64.272 79.7977 62.4373 80.011 61.328ZM71.307 78.608C73.3123 78.608 75.1257 76.8587 76.747 73.36C75.211 73.6587 73.8457 73.872 72.651 74C71.4563 74.1707 70.4323 74.32 69.579 74.448C67.8723 74.704 67.0403 75.152 67.083 75.792C67.083 76.6027 67.5523 77.2853 68.491 77.84C69.4723 78.3947 70.411 78.6507 71.307 78.608ZM141.294 63.184C141.294 65.7013 138.841 66.96 133.934 66.96C132.867 66.96 132.227 66.4267 132.014 65.36C131.843 64.2507 131.758 62.8853 131.758 61.264C131.758 59.6427 131.865 57.9147 132.078 56.08C132.334 54.2027 132.654 52.176 133.038 50C133.763 45.8187 134.787 41.3173 136.11 36.496C137.475 31.632 138.819 27.8773 140.142 25.232C137.454 25.4027 134.787 25.8933 132.142 26.704C129.497 27.472 127.619 28.0267 126.51 28.368C125.401 28.6667 124.483 28.816 123.758 28.816C123.033 28.816 122.67 28.5813 122.67 28.112C122.67 27.5573 123.097 26.7467 123.95 25.68C124.803 24.5707 126.019 23.4613 127.598 22.352C131.609 19.6213 136.067 18.2347 140.974 18.192L162.03 18.384C163.182 18.384 163.758 18.832 163.758 19.728C163.758 19.984 163.587 20.4533 163.246 21.136C162.905 21.776 162.606 22.48 162.35 23.248C161.795 24.784 160.622 25.552 158.83 25.552C157.081 25.552 152.878 25.424 146.222 25.168C146.051 27.0453 145.71 29.456 145.198 32.4C144.686 35.3013 144.131 38.48 143.534 41.936C142.083 50.768 141.337 57.8507 141.294 63.184ZM164.764 55.248L165.148 63.056C165.148 64.08 164.615 64.9973 163.548 65.808C162.481 66.6187 161.031 67.024 159.196 67.024C158.129 67.024 157.383 66.4693 156.956 65.36C156.572 64.2507 156.38 62.6293 156.38 60.496C156.38 56.016 156.593 52.5173 157.02 50C157.489 47.44 158.385 44.8587 159.708 42.256C157.745 40.3787 156.764 38.7573 156.764 37.392C156.764 34.5333 158.3 33.104 161.372 33.104C162.951 33.104 164.337 33.936 165.532 35.6C166.385 36.752 167.004 38.096 167.388 39.632C167.985 39.8453 168.732 39.952 169.628 39.952C170.865 39.952 172.295 39.5467 173.916 38.736L175.58 37.904C176.092 37.648 176.54 37.52 176.924 37.52C178.161 37.52 179.399 39.3333 180.636 42.96C180.252 44.624 179.825 46.224 179.356 47.76C178.929 49.296 178.417 51.152 177.82 53.328C177.223 55.504 176.903 56.976 176.86 57.744C176.86 58.4693 177.095 58.832 177.564 58.832C178.204 58.832 178.993 58.4267 179.932 57.616C180.871 56.8053 181.809 55.9307 182.748 54.992C183.687 54.0107 184.54 53.1147 185.308 52.304C186.119 51.4933 186.673 51.088 186.972 51.088C187.569 51.088 187.868 51.8133 187.868 53.264C187.868 56.208 186.567 59.1093 183.964 61.968C181.404 64.8267 178.46 66.2347 175.132 66.192C173.169 66.192 171.697 65.4027 170.716 63.824C169.735 62.2453 169.223 60.3253 169.18 58.064C169.18 53.584 170.183 49.3387 172.188 45.328C171.249 45.712 170.183 45.904 168.988 45.904C167.836 45.904 167.004 45.8613 166.492 45.776C166.108 47.3973 165.724 49.04 165.34 50.704C164.956 52.3253 164.764 53.84 164.764 55.248ZM223.966 50.896C224.734 50.896 225.118 51.8773 225.118 53.84C225.118 54.9067 224.67 56.208 223.774 57.744C222.878 59.2373 221.705 60.624 220.254 61.904C218.846 63.1413 217.267 64.1653 215.518 64.976C213.769 65.7867 212.062 66.192 210.398 66.192C208.137 66.192 206.622 64.208 205.854 60.24C204.745 62.0747 203.294 63.5893 201.502 64.784C199.71 65.936 197.299 66.512 194.27 66.512C191.283 66.512 188.873 65.5733 187.038 63.696C185.203 61.8187 184.307 59.536 184.35 56.848C184.35 49.5947 186.761 43.8773 191.582 39.696C193.63 37.9467 195.529 36.7947 197.278 36.24C199.07 35.6853 200.947 35.408 202.91 35.408C204.873 35.408 206.473 35.7493 207.71 36.432C208.307 35.1947 208.99 34.576 209.758 34.576C211.251 34.576 212.659 35.2373 213.982 36.56C215.347 37.84 216.03 39.056 216.03 40.208C215.433 41.616 214.558 43.3013 213.406 45.264C213.065 47.2267 212.894 49.9787 212.894 53.52C212.894 57.0613 213.342 58.832 214.238 58.832C215.347 58.832 218.035 56.6133 222.302 52.176C223.07 51.3227 223.625 50.896 223.966 50.896ZM193.758 54.736C193.758 58.0213 194.974 59.664 197.406 59.664C200.009 59.6213 202.163 58.2347 203.87 55.504C204.467 54.5653 204.958 53.4133 205.342 52.048C205.342 47.2693 205.769 43.1733 206.622 39.76C203.166 40.4427 200.158 42.1067 197.598 44.752C195.038 47.3973 193.758 50.7253 193.758 54.736ZM232.032 37.84C232.032 40.6987 231.52 43.9413 230.496 47.568C230.581 48.9333 230.624 50.256 230.624 51.536C230.624 52.816 230.709 53.9253 230.88 54.864C231.52 56.5707 232.331 57.616 233.312 58C234.165 58 235.104 57.2747 236.128 55.824C237.152 54.3307 238.197 52.56 239.264 50.512C238.752 48.5493 238.496 46.6933 238.496 44.944C238.496 41.872 238.965 39.632 239.904 38.224C241.056 36.432 242.805 35.536 245.152 35.536C247.499 35.536 249.056 36.432 249.824 38.224C250.123 38.9067 250.272 39.6747 250.272 40.528C250.272 42.064 249.888 43.6427 249.12 45.264C248.352 46.8427 247.115 48.9333 245.408 51.536C246.176 53.7973 247.328 54.928 248.864 54.928C250.741 54.8853 252.363 54.224 253.728 52.944C254.24 52.432 254.667 51.984 255.008 51.6C255.392 51.216 255.776 51.024 256.16 51.024C256.757 51.024 257.056 51.728 257.056 53.136C257.056 55.7813 256.288 57.7227 254.752 58.96C253.259 60.1547 251.36 60.752 249.056 60.752C246.027 60.752 243.616 59.4293 241.824 56.784C236.832 63.2693 232.651 66.512 229.28 66.512C227.957 66.512 226.656 64.6347 225.376 60.88C224.096 57.1253 223.115 52.048 222.432 45.648C221.92 41.5947 222.219 38.6933 223.328 36.944C224.267 35.5787 226.101 34.896 228.832 34.896C229.856 34.896 230.645 35.216 231.2 35.856C231.755 36.4533 232.032 37.1147 232.032 37.84ZM269.082 59.024C272.41 59.024 275.631 57.7013 278.746 55.056C279.898 54.0747 280.837 53.1787 281.562 52.368C282.287 51.5147 282.842 51.088 283.226 51.088C283.823 51.088 284.122 51.6853 284.122 52.88C284.122 54.0747 283.802 55.4187 283.162 56.912C282.522 58.3627 281.455 59.792 279.962 61.2C276.293 64.656 271.258 66.384 264.858 66.384C259.781 66.384 256.325 64.5493 254.49 60.88C253.85 59.6 253.53 57.7653 253.53 55.376C253.53 52.9867 253.999 50.512 254.938 47.952C255.877 45.3493 257.114 43.1093 258.65 41.232C260.229 39.3547 262.042 37.904 264.09 36.88C266.138 35.8133 268.314 35.28 270.618 35.28C272.965 35.28 274.757 35.856 275.994 37.008C277.274 38.16 277.914 39.6533 277.914 41.488C277.914 43.3227 277.445 44.8373 276.506 46.032C275.61 47.184 274.437 48.1653 272.986 48.976C271.535 49.744 269.914 50.448 268.122 51.088C266.373 51.6853 264.645 52.368 262.938 53.136V54.736C262.981 56.272 263.621 57.36 264.858 58C266.095 58.64 267.503 58.9813 269.082 59.024ZM267.994 40.976C265.775 40.976 264.239 43.5573 263.386 48.72C264.282 48.1227 265.114 47.5893 265.882 47.12C266.693 46.6507 267.397 46.2027 267.994 45.776C269.274 44.8373 269.935 43.7707 269.978 42.576C269.978 41.5093 269.317 40.976 267.994 40.976ZM295.192 66.192C289.091 66.2347 284.931 63.952 282.712 59.344C281.944 57.7227 281.56 55.696 281.56 53.264C281.56 50.7893 281.773 48.1653 282.2 45.392C283.053 39.8453 284.696 34.7253 287.128 30.032C288.365 27.6427 289.752 25.5947 291.288 23.888C294.659 20.1333 298.413 18.2773 302.552 18.32C304.387 18.32 305.816 18.832 306.84 19.856C307.907 20.8373 308.44 22.2667 308.44 24.144C308.44 26.0213 307.885 27.92 306.776 29.84C305.667 31.7173 304.237 33.68 302.488 35.728C300.781 37.7333 298.883 39.8453 296.792 42.064C294.701 44.2827 292.653 46.6933 290.648 49.296V51.856C290.648 54.2453 291.16 55.9947 292.184 57.104C293.208 58.2133 294.403 58.768 295.768 58.768C299.437 58.768 302.68 56.9547 305.496 53.328C306.648 51.8347 307.523 51.088 308.12 51.088C308.717 51.088 309.016 51.8133 309.016 53.264C309.016 54.7147 308.611 56.208 307.8 57.744C307.032 59.2373 306.008 60.624 304.728 61.904C303.448 63.1413 301.976 64.1653 300.312 64.976C298.648 65.7867 296.941 66.192 295.192 66.192ZM298.648 31.824C299.544 30.7147 300.248 29.712 300.76 28.816C301.272 27.92 301.528 27.0027 301.528 26.064C301.528 25.0827 301.187 24.592 300.504 24.592C299.011 24.592 297.347 26.128 295.512 29.2C293.72 32.272 292.376 36.304 291.48 41.296C292.931 39.0773 294.253 37.2213 295.448 35.728C296.685 34.2347 297.752 32.9333 298.648 31.824ZM343.594 63.184C343.594 65.7013 341.14 66.96 336.234 66.96C335.167 66.96 334.527 66.4267 334.314 65.36C334.143 64.2507 334.058 62.7147 334.058 60.752C334.058 56.6133 334.89 51.4933 336.554 45.392C339.327 35.3227 342.292 29.392 345.45 27.6C345.876 27.344 346.346 27.216 346.858 27.216C347.37 27.216 347.626 28.048 347.626 29.712C347.626 31.376 347.54 32.848 347.37 34.128C347.028 36.688 346.41 39.9947 345.514 44.048C344.66 48.1013 344.234 50.4907 344.234 51.216L343.594 63.184ZM347.946 45.968C347.946 45.4133 348.244 45.0507 348.842 44.88C349.482 44.7093 350.271 44.56 351.21 44.432C352.148 44.2613 353.172 44.0267 354.282 43.728C355.391 43.4293 356.415 42.8747 357.354 42.064C359.53 40.1867 360.618 37.0507 360.618 32.656C360.618 29.84 359.658 27.6853 357.738 26.192C355.86 24.6987 353.13 23.952 349.546 23.952C346.004 23.952 342.676 24.6987 339.562 26.192C338.41 26.7467 337.364 27.2587 336.426 27.728C335.53 28.1973 334.698 28.432 333.93 28.432C333.162 28.432 332.778 28.1973 332.778 27.728C332.778 27.0027 333.482 25.808 334.89 24.144C336.298 22.608 338.516 21.1787 341.546 19.856C344.618 18.5333 347.839 17.872 351.21 17.872C357.567 17.8293 362.516 19.3227 366.058 22.352C369.13 24.9973 370.666 28.432 370.666 32.656C370.666 36.8373 369.151 40.592 366.122 43.92C363.092 47.2053 359.295 48.848 354.73 48.848C350.207 48.848 347.946 47.888 347.946 45.968ZM395.901 60.56C392.53 64.528 388.477 66.512 383.741 66.512C379.048 66.512 375.528 65.3173 373.181 62.928C370.834 60.496 369.682 57.488 369.725 53.904C369.682 48.8267 371.282 44.4533 374.525 40.784C377.768 37.1147 382.013 35.28 387.261 35.28C389.65 35.28 391.57 35.5787 393.021 36.176C395.538 37.2 396.797 38.16 396.797 39.056C396.797 39.7387 395.026 40.1013 391.485 40.144C387.986 40.144 385.042 41.36 382.653 43.792C380.306 46.1813 379.133 49.2107 379.133 52.88C379.133 54.8 379.688 56.4213 380.797 57.744C381.949 59.024 383.549 59.664 385.597 59.664C387.688 59.664 389.416 59.2373 390.781 58.384C387.752 56.336 386.237 53.3707 386.237 49.488C386.194 47.44 386.92 45.584 388.413 43.92C389.949 42.2133 391.89 41.36 394.237 41.36C396.626 41.3173 398.333 41.9573 399.357 43.28C400.381 44.6027 400.893 46.3093 400.893 48.4C400.893 50.448 400.402 52.624 399.421 54.928H399.805C401.682 54.8853 403.304 54.224 404.669 52.944C405.181 52.432 405.608 51.984 405.949 51.6C406.333 51.216 406.717 51.024 407.101 51.024C407.698 51.024 407.997 51.728 407.997 53.136C407.997 55.7387 407.229 57.7013 405.693 59.024C404.157 60.304 402.45 60.944 400.573 60.944C398.738 60.944 397.181 60.816 395.901 60.56ZM395.325 53.136C396.05 51.6 396.413 50.1067 396.413 48.656C396.413 47.2053 395.944 46.48 395.005 46.48C394.621 46.48 394.301 46.7573 394.045 47.312C393.789 47.8667 393.661 48.4 393.661 48.912C393.661 50.6187 394.216 52.0267 395.325 53.136ZM430.203 50.896C430.971 50.896 431.355 51.5573 431.355 52.88C431.355 54.16 431.014 55.5467 430.331 57.04C429.691 58.5333 428.688 59.984 427.323 61.392C426 62.7573 424.294 63.9307 422.203 64.912C420.112 65.8933 417.638 66.384 414.779 66.384C411.963 66.384 409.488 65.552 407.355 63.888C405.222 62.1813 404.155 59.7493 404.155 56.592C404.155 53.392 404.646 50.512 405.627 47.952C406.651 45.3493 407.974 43.1093 409.595 41.232C411.259 39.3547 413.136 37.904 415.227 36.88C417.318 35.8133 419.302 35.28 421.179 35.28C424.464 35.28 426.107 36.5813 426.107 39.184C426.107 40.6773 425.787 41.872 425.147 42.768C424.55 43.664 423.931 44.112 423.291 44.112C422.438 44.112 421.691 43.8133 421.051 43.216C420.411 42.6187 419.707 42.32 418.939 42.32C418.171 42.2773 417.424 42.64 416.699 43.408C416.016 44.176 415.44 45.1573 414.971 46.352C414.032 48.7413 413.563 51.536 413.563 54.736C413.606 56.272 414.31 57.424 415.675 58.192C416.614 58.704 417.723 58.9813 419.003 59.024C420.283 59.024 421.499 58.5973 422.651 57.744C423.846 56.8907 424.934 55.9733 425.915 54.992C426.896 53.968 427.75 53.0293 428.475 52.176C429.243 51.3227 429.819 50.896 430.203 50.896ZM446.858 51.984C448.01 56.5493 449.951 58.832 452.682 58.832C454.005 58.832 455.199 58.4267 456.266 57.616C457.333 56.8053 458.293 55.9307 459.146 54.992C459.999 54.0107 460.746 53.1147 461.386 52.304C462.026 51.4933 462.623 51.088 463.178 51.088C463.733 51.088 464.01 51.8133 464.01 53.264C464.01 56.2933 462.602 59.216 459.786 62.032C456.97 64.848 453.813 66.2347 450.314 66.192C446.858 66.192 443.765 63.1413 441.034 57.04C440.266 55.3333 439.541 53.6053 438.858 51.856L438.41 60.624C438.41 61.4347 438.367 62.2453 438.282 63.056C438.197 63.824 437.834 64.464 437.194 64.976C435.53 66.2987 433.845 66.96 432.138 66.96C430.133 66.96 429.13 64.8907 429.13 60.752C429.13 54.7787 429.834 48.528 431.242 42C432.65 35.472 434.015 30.5653 435.338 27.28C436.703 23.952 437.749 21.7333 438.474 20.624C439.242 19.5147 439.839 18.832 440.266 18.576C440.693 18.32 441.162 18.192 441.674 18.192C442.229 18.192 442.805 18.4693 443.402 19.024C443.999 19.536 444.639 20.3467 445.322 21.456C446.005 22.5227 446.346 23.5893 446.346 24.656C446.389 25.68 446.218 26.704 445.834 27.728C445.493 28.7093 445.023 29.6907 444.426 30.672C443.829 31.6107 443.167 32.592 442.442 33.616C441.717 34.5973 440.991 35.664 440.266 36.816L439.626 42.192C441.119 39.0773 443.317 36.9867 446.218 35.92C447.242 35.536 448.437 35.344 449.802 35.344C452.533 35.344 454.623 36.0053 456.074 37.328C457.525 38.608 458.25 40.5067 458.25 43.024C458.25 45.5413 456.991 47.6747 454.474 49.424C451.957 51.1733 449.418 52.0267 446.858 51.984ZM449.29 44.496C449.29 42.96 448.415 42.192 446.666 42.192C444.917 42.192 443.018 43.8773 440.97 47.248C440.373 48.2293 439.861 49.232 439.434 50.256C443.871 50 446.901 48.8053 448.522 46.672C449.034 45.9893 449.29 45.264 449.29 44.496ZM475.707 59.024C479.035 59.024 482.256 57.7013 485.371 55.056C486.523 54.0747 487.462 53.1787 488.187 52.368C488.912 51.5147 489.467 51.088 489.851 51.088C490.448 51.088 490.747 51.6853 490.747 52.88C490.747 54.0747 490.427 55.4187 489.787 56.912C489.147 58.3627 488.08 59.792 486.587 61.2C482.918 64.656 477.883 66.384 471.483 66.384C466.406 66.384 462.95 64.5493 461.115 60.88C460.475 59.6 460.155 57.7653 460.155 55.376C460.155 52.9867 460.624 50.512 461.563 47.952C462.502 45.3493 463.739 43.1093 465.275 41.232C466.854 39.3547 468.667 37.904 470.715 36.88C472.763 35.8133 474.939 35.28 477.243 35.28C479.59 35.28 481.382 35.856 482.619 37.008C483.899 38.16 484.539 39.6533 484.539 41.488C484.539 43.3227 484.07 44.8373 483.131 46.032C482.235 47.184 481.062 48.1653 479.611 48.976C478.16 49.744 476.539 50.448 474.747 51.088C472.998 51.6853 471.27 52.368 469.563 53.136V54.736C469.606 56.272 470.246 57.36 471.483 58C472.72 58.64 474.128 58.9813 475.707 59.024ZM474.619 40.976C472.4 40.976 470.864 43.5573 470.011 48.72C470.907 48.1227 471.739 47.5893 472.507 47.12C473.318 46.6507 474.022 46.2027 474.619 45.776C475.899 44.8373 476.56 43.7707 476.603 42.576C476.603 41.5093 475.942 40.976 474.619 40.976ZM490.361 62.544C489.892 61.392 489.55 60.0693 489.337 58.576C489.124 57.04 489.017 54.9067 489.017 52.176C489.017 49.4453 489.529 45.7547 490.553 41.104H487.673C487.161 41.104 486.905 40.8907 486.905 40.464C486.905 39.44 486.99 38.608 487.161 37.968C487.374 37.2853 487.844 36.5173 488.569 35.664H490.105C490.702 35.664 491.342 35.6427 492.025 35.6C494.073 29.0293 496.164 25.744 498.297 25.744C500.004 25.7867 501.198 26.8747 501.881 29.008C502.052 29.6053 502.244 30.2453 502.457 30.928L499.833 35.536C502.82 35.6213 504.697 35.664 505.465 35.664C506.276 35.664 506.702 35.7493 506.745 35.92C506.83 36.048 506.873 36.2613 506.873 36.56C506.873 37.328 506.681 38.288 506.297 39.44C505.956 40.592 505.55 41.1467 505.081 41.104L498.681 40.784C497.785 45.9893 497.337 50.2987 497.337 53.712C497.337 57.1253 497.828 58.832 498.809 58.832C499.62 58.832 501.092 58.1707 503.225 56.848C505.358 55.4827 506.894 54.1813 507.833 52.944C508.772 51.7067 509.54 51.088 510.137 51.088C510.734 51.088 511.033 51.8133 511.033 53.264C511.033 54.7147 510.521 56.208 509.497 57.744C508.473 59.2373 507.172 60.624 505.593 61.904C504.057 63.1413 502.329 64.1653 500.409 64.976C498.532 65.7867 496.889 66.192 495.481 66.192C494.073 66.192 492.985 65.872 492.217 65.232C491.492 64.5493 490.873 63.6533 490.361 62.544Z" fill="#4E4E4E"/>
</svg>
