<svg xmlns="http://www.w3.org/2000/svg" xmlns:xlink="http://www.w3.org/1999/xlink" viewBox="0 0 140 140"><defs><style>.cls-1{fill:none;}.cls-2{fill:#31a5b6;}.cls-3{fill:#f2c555;}.cls-4{fill:url(#新增圖樣色票_4);}.cls-5{fill:url(#新增圖樣色票_1);}</style><pattern id="新增圖樣色票_4" data-name="新增圖樣色票 4" width="47" height="47" patternTransform="translate(601.45)" patternUnits="userSpaceOnUse" viewBox="0 0 47 47"><rect class="cls-1" width="47" height="47"/><rect class="cls-3" width="47" height="47"/></pattern><pattern id="新增圖樣色票_1" data-name="新增圖樣色票 1" width="47" height="47" patternTransform="translate(596.45 -8)" patternUnits="userSpaceOnUse" viewBox="0 0 47 47"><rect class="cls-1" width="47" height="47"/><rect class="cls-2" width="47" height="47"/></pattern></defs><g id="圖層_1" data-name="圖層 1"><path class="cls-4" d="M86.67,57.71a3.15,3.15,0,0,0-3.15,3.15v10c0,3-2,3.61-3.26,3.69a4.84,4.84,0,0,1-3.6-1.12A3.69,3.69,0,0,1,75.84,71V60.86a3.16,3.16,0,0,0-6.32,0v9.71A10,10,0,0,0,72,77.64c1.94,2.14,4.75,3.22,8.37,3.22h.11a9.63,9.63,0,0,0,9.38-10v-10A3.15,3.15,0,0,0,86.67,57.71Z"/><path class="cls-4" d="M44.65,68.19a.69.69,0,0,0-.13-.11,7.23,7.23,0,0,0,.62-3A7,7,0,0,0,43,59.77a9.13,9.13,0,0,0-6.33-2.08H30.2A3.16,3.16,0,0,0,27,60.85V69.1s0,.05,0,.08,0,.06,0,.09v8.25a3.16,3.16,0,0,0,3.16,3.15h9.63c2.81-.18,7-2.24,7-7.19A7,7,0,0,0,44.65,68.19ZM33.36,64h3.58a3,3,0,0,1,1.74.4,1.12,1.12,0,0,1,.15.66c0,.24,0,.75-1,.88H33.36Zm6.11,10.36H33.36V72.42h5.26a2.92,2.92,0,0,1,1.74.4,1.1,1.1,0,0,1,.15.66C40.51,73.72,40.51,74.23,39.47,74.36Z"/><path class="cls-4" d="M110,72.36a7.28,7.28,0,0,0,4.09-6.68,7.4,7.4,0,0,0-2.32-5.6c-2.62-2.44-6.47-2.41-7.35-2.36H97a3.15,3.15,0,0,0-3.15,3.15c0,.13,0,.26,0,.39V69.9c0,.12,0,.25,0,.39s0,.26,0,.38v7a3.16,3.16,0,0,0,6.32,0V73.44h2.38L108,79.75a3.16,3.16,0,0,0,2.4,1.11,3.12,3.12,0,0,0,2-.76,3.16,3.16,0,0,0,.35-4.45ZM100.21,64h4.48a4.6,4.6,0,0,1,2.77.68c.09.09.3.28.3,1,0,1.13-1.31,1.39-1.91,1.45h-5.64Z"/><path class="cls-4" d="M63.46,80.12h-11a3,3,0,1,1,0-6h11a3,3,0,0,1,0,6Z"/><path class="cls-5" d="M50.73,83A3,3,0,0,1,48,78.78l9-20a3,3,0,1,1,5.48,2.47l-9,20A3,3,0,0,1,50.73,83Z"/><path class="cls-5" d="M17.74,77.38A2.44,2.44,0,0,1,16.43,77L9.19,72.3a2.4,2.4,0,0,1-.1-4l7.24-5.24A2.41,2.41,0,1,1,19.15,67l-4.4,3.18L19.05,73a2.41,2.41,0,0,1-1.31,4.43Z"/><path class="cls-5" d="M122.26,77.38A2.41,2.41,0,0,1,121,73l4.3-2.78L120.85,67a2.41,2.41,0,1,1,2.82-3.9l7.24,5.24a2.4,2.4,0,0,1-.1,4L123.56,77A2.38,2.38,0,0,1,122.26,77.38Z"/></g></svg>