<svg xmlns="http://www.w3.org/2000/svg" xmlns:xlink="http://www.w3.org/1999/xlink" viewBox="0 0 800 800"><defs><style>.cls-1{fill:none;}.cls-2{fill:#31a5b6;}.cls-3{fill:#f2c555;}.cls-4{fill:url(#新增圖樣色票_4);}.cls-5{fill:url(#新增圖樣色票_1);}</style><pattern id="新增圖樣色票_4" data-name="新增圖樣色票 4" width="47" height="47" patternTransform="translate(709.24)" patternUnits="userSpaceOnUse" viewBox="0 0 47 47"><rect class="cls-1" width="47" height="47"/><rect class="cls-3" width="47" height="47"/></pattern><pattern id="新增圖樣色票_1" data-name="新增圖樣色票 1" width="47" height="47" patternTransform="translate(704.24 -8)" patternUnits="userSpaceOnUse" viewBox="0 0 47 47"><rect class="cls-1" width="47" height="47"/><rect class="cls-2" width="47" height="47"/></pattern></defs><g id="圖層_1" data-name="圖層 1"><path class="cls-4" d="M495.48,329.6a18.07,18.07,0,0,0-18.08,18.07v57.18c0,17.24-11.72,20.68-18.62,21.16-9.74-.06-16.68-2.22-20.62-6.41-4.84-5.16-4.79-13-4.75-14.16l.07-57.77a18.08,18.08,0,0,0-36.16,0v55.57c-.3,5.21-.34,24.82,13.94,40.52,11.11,12.22,27.25,18.41,48,18.41h.62c21.59-.75,53.71-16.63,53.71-57.31V347.67A18.07,18.07,0,0,0,495.48,329.6Z"/><path class="cls-4" d="M254.84,389.61c-.24-.22-.49-.41-.73-.62a41.51,41.51,0,0,0,3.56-17.3c0-15.49-6.78-25-12.47-30.29-13.12-12.14-31.57-12.1-36.21-11.89h-36.9A18.07,18.07,0,0,0,154,347.59v47.24c0,.16,0,.32,0,.48s0,.32,0,.49V443a18.08,18.08,0,0,0,18.07,18.08h54c.38,0,.75,0,1.13,0,16.11-1,40.09-12.8,40.09-41.18C267.31,404.41,260.53,394.88,254.84,389.61Zm-64.67-23.95h19.32a11.93,11.93,0,0,0,1.2,0c3-.16,8.19.65,10,2.34.75.7.86,2.64.86,3.73,0,1.41,0,4.3-6,5.06H190.17Zm35,59.3h-35V413.87h29a11.83,11.83,0,0,0,1.19,0c3-.17,8.2.65,10,2.33.74.71.85,2.65.85,3.74C231.15,421.31,231.15,424.2,225.17,425Z"/><path class="cls-4" d="M628.92,413.49c12.59-6.63,23.44-18.84,23.44-38.25,0-12.91-4.58-24-13.25-32.07-15-14-37.1-13.75-42.12-13.52H554.74A18,18,0,0,0,536.81,350v49.45a16.58,16.58,0,0,0,0,4.45v40.23a18.08,18.08,0,0,0,36.16,0V419.71h13.67l31,36.14a18.08,18.08,0,0,0,27.46-23.52ZM573,365.81h25l.65-.05c4.46-.24,12.58.82,15.84,3.9.51.48,1.7,1.61,1.7,5.57,0,6.46-7.5,8-10.92,8.32H573Z"/><path class="cls-4" d="M362.53,458H299.38a17.23,17.23,0,0,1,0-34.45h63.15a17.23,17.23,0,0,1,0,34.45Z"/><path class="cls-5" d="M289.68,474.59A17.24,17.24,0,0,1,274,450.3l51.56-114.72A17.22,17.22,0,0,1,357,349.7L305.4,464.42A17.22,17.22,0,0,1,289.68,474.59Z"/><path class="cls-5" d="M100.73,442.25A13.79,13.79,0,0,1,93.26,440l-41.5-26.86a13.79,13.79,0,0,1-.59-22.73l41.5-30a13.78,13.78,0,1,1,16.15,22.33L83.64,401l24.59,15.92a13.78,13.78,0,0,1-7.5,25.35Z"/><path class="cls-5" d="M699.26,442.25a13.78,13.78,0,0,1-7.49-25.35L716.36,401l-25.19-18.22a13.78,13.78,0,0,1,16.16-22.33l41.5,30a13.78,13.78,0,0,1-.6,22.73L706.74,440A13.8,13.8,0,0,1,699.26,442.25Z"/></g></svg>