<svg xmlns="http://www.w3.org/2000/svg" xmlns:xlink="http://www.w3.org/1999/xlink" viewBox="0 0 320 320"><defs><style>.cls-1{fill:none;}.cls-2{fill:#31a5b6;}.cls-3{fill:#f2c555;}.cls-4{fill:url(#新增圖樣色票_4);}.cls-5{fill:url(#新增圖樣色票_1);}</style><pattern id="新增圖樣色票_4" data-name="新增圖樣色票 4" width="47" height="47" patternTransform="translate(601.45)" patternUnits="userSpaceOnUse" viewBox="0 0 47 47"><rect class="cls-1" width="47" height="47"/><rect class="cls-3" width="47" height="47"/></pattern><pattern id="新增圖樣色票_1" data-name="新增圖樣色票 1" width="47" height="47" patternTransform="translate(596.45 -8)" patternUnits="userSpaceOnUse" viewBox="0 0 47 47"><rect class="cls-1" width="47" height="47"/><rect class="cls-2" width="47" height="47"/></pattern></defs><g id="圖層_1" data-name="圖層 1"><path class="cls-4" d="M198.71,131.46a7.33,7.33,0,0,0-7.33,7.33V162c0,7-4.75,8.38-7.55,8.57-4,0-6.76-.89-8.36-2.59a8.6,8.6,0,0,1-1.92-5.74l0-23.42a7.33,7.33,0,1,0-14.66,0v22.52c-.12,2.11-.13,10.07,5.66,16.43,4.5,4.95,11,7.46,19.44,7.46h.25C193,184.9,206,178.46,206,162V138.79A7.33,7.33,0,0,0,198.71,131.46Z"/><path class="cls-4" d="M101.15,155.79a3.61,3.61,0,0,0-.3-.25,16.7,16.7,0,0,0,1.45-7,16.13,16.13,0,0,0-5.06-12.28c-5.31-4.92-12.8-4.9-14.68-4.82h-15a7.33,7.33,0,0,0-7.33,7.33V157.9c0,.07,0,.13,0,.2s0,.13,0,.2v19.15a7.33,7.33,0,0,0,7.33,7.33H89.5l.45,0c6.54-.41,16.26-5.19,16.26-16.69A16.11,16.11,0,0,0,101.15,155.79Zm-26.21-9.71h7.83a3.77,3.77,0,0,0,.48,0c1.2-.06,3.33.27,4,.95a2.5,2.5,0,0,1,.35,1.51c0,.57,0,1.75-2.43,2H74.94Zm14.18,24H74.94v-4.5H87.16c1.21-.07,3.32.26,4,.94a2.53,2.53,0,0,1,.35,1.52C91.55,168.64,91.55,169.81,89.12,170.12Z"/><path class="cls-4" d="M252.8,165.47A16.88,16.88,0,0,0,262.31,150a17.23,17.23,0,0,0-5.38-13c-6.08-5.66-15-5.57-17.07-5.48H222.73a7.33,7.33,0,0,0-7.33,7.33,8.68,8.68,0,0,0,.06.9v20c0,.3-.06.6-.06.9a9.07,9.07,0,0,0,.06.91v16.3a7.33,7.33,0,1,0,14.66,0V168h5.54l12.56,14.65a7.33,7.33,0,1,0,11.13-9.53Zm-22.68-19.33h10.16l.26,0c1.81-.1,5.1.34,6.42,1.58.21.2.69.66.69,2.26,0,2.62-3,3.24-4.43,3.37h-13.1Z"/><path class="cls-4" d="M144.81,183.49h-25.6a7,7,0,1,1,0-14h25.6a7,7,0,1,1,0,14Z"/><path class="cls-5" d="M115.28,190.24a7,7,0,0,1-6.37-9.85l20.9-46.51a7,7,0,0,1,12.74,5.73l-20.9,46.51A7,7,0,0,1,115.28,190.24Z"/><path class="cls-5" d="M38.68,177.13a5.54,5.54,0,0,1-3-.9L18.82,165.34a5.59,5.59,0,0,1-.23-9.21L35.41,144A5.59,5.59,0,1,1,42,153L31.75,160.4l10,6.45a5.59,5.59,0,0,1-3,10.28Z"/><path class="cls-5" d="M281.32,177.13a5.59,5.59,0,0,1-3-10.28l10-6.45L278,153a5.59,5.59,0,1,1,6.55-9l16.82,12.17a5.58,5.58,0,0,1-.24,9.21l-16.82,10.89A5.54,5.54,0,0,1,281.32,177.13Z"/></g></svg>