<svg xmlns="http://www.w3.org/2000/svg" xmlns:xlink="http://www.w3.org/1999/xlink" viewBox="0 0 600 600"><defs><style>.cls-1{fill:none;}.cls-2{fill:#31a5b6;}.cls-3{fill:#f2c555;}.cls-4{fill:url(#新增圖樣色票_4);}.cls-5{fill:url(#新增圖樣色票_1);}</style><pattern id="新增圖樣色票_4" data-name="新增圖樣色票 4" width="47" height="47" patternTransform="translate(601.45)" patternUnits="userSpaceOnUse" viewBox="0 0 47 47"><rect class="cls-1" width="47" height="47"/><rect class="cls-3" width="47" height="47"/></pattern><pattern id="新增圖樣色票_1" data-name="新增圖樣色票 1" width="47" height="47" patternTransform="translate(596.45 -8)" patternUnits="userSpaceOnUse" viewBox="0 0 47 47"><rect class="cls-1" width="47" height="47"/><rect class="cls-2" width="47" height="47"/></pattern></defs><g id="圖層_1" data-name="圖層 1"><path class="cls-4" d="M371,247.63a13.45,13.45,0,0,0-13.45,13.45v42.53c0,12.83-8.71,15.38-13.85,15.74-7.24-.05-12.4-1.65-15.33-4.77-3.6-3.84-3.56-9.65-3.53-10.53l0-43a13.45,13.45,0,1,0-26.89,0v41.33c-.22,3.87-.26,18.47,10.37,30.15,8.26,9.08,20.27,13.69,35.67,13.69h.47c16.06-.55,40-12.37,40-42.63V261.08A13.45,13.45,0,0,0,371,247.63Z"/><path class="cls-4" d="M192,292.27l-.55-.46a30.75,30.75,0,0,0,2.65-12.87c0-11.52-5-18.61-9.27-22.53-9.76-9-23.49-9-26.94-8.85H130.47A13.45,13.45,0,0,0,117,261v35.14c0,.12,0,.24,0,.36s0,.24,0,.36V332a13.45,13.45,0,0,0,13.45,13.45h40.16l.84,0c12-.75,29.82-9.53,29.82-30.64C201.29,303.28,196.25,296.19,192,292.27Zm-48.11-17.81h14.38a8.63,8.63,0,0,0,.88,0c2.21-.13,6.1.48,7.42,1.73.55.53.63,2,.63,2.78,0,1.05,0,3.2-4.45,3.76H143.91Zm26,44.11h-26v-8.25h21.55c.34,0,.54,0,.89,0,2.21-.13,6.09.48,7.41,1.73.55.53.64,2,.64,2.78C174.4,315.85,174.4,318,170,318.57Z"/><path class="cls-4" d="M470.29,310c9.36-4.92,17.44-14,17.44-28.45,0-9.6-3.41-17.85-9.86-23.85-11.17-10.4-27.6-10.24-31.33-10.06H415.11a13.45,13.45,0,0,0-13.45,13.45,14.91,14.91,0,0,0,.11,1.65v36.79a15.25,15.25,0,0,0-.11,1.66,14.91,14.91,0,0,0,.11,1.65V332.8a13.45,13.45,0,1,0,26.9,0V314.66h10.17l23,26.89a13.45,13.45,0,0,0,20.42-17.5Zm-41.62-35.46H447.3l.48,0c3.32-.18,9.36.61,11.79,2.9.38.36,1.26,1.19,1.26,4.14,0,4.81-5.58,5.94-8.12,6.19h-24Z"/><path class="cls-4" d="M272.13,343.1h-47a12.81,12.81,0,0,1,0-25.62h47a12.81,12.81,0,0,1,0,25.62Z"/><path class="cls-5" d="M217.93,355.49a12.83,12.83,0,0,1-11.68-18.07l38.36-85.34A12.81,12.81,0,1,1,268,262.58l-38.35,85.34A12.83,12.83,0,0,1,217.93,355.49Z"/><path class="cls-5" d="M77.38,331.43a10.17,10.17,0,0,1-5.56-1.65L41,309.8a10.25,10.25,0,0,1-.43-16.91l30.87-22.33a10.25,10.25,0,0,1,12,16.62L64.66,300.73,83,312.57a10.25,10.25,0,0,1-5.58,18.86Z"/><path class="cls-5" d="M522.62,331.43A10.25,10.25,0,0,1,517,312.57l18.3-11.84L516.6,287.18a10.25,10.25,0,0,1,12-16.62l30.87,22.33A10.25,10.25,0,0,1,559,309.8l-30.87,20A10.14,10.14,0,0,1,522.62,331.43Z"/></g></svg>