<svg width="393" height="103" viewBox="0 0 393 103" fill="none" xmlns="http://www.w3.org/2000/svg">
<g filter="url(#filter0_d_362_7470)">
<path fill-rule="evenodd" clip-rule="evenodd" d="M298.255 23.6216L288.25 1L322.813 23.6216H364C375.046 23.6216 384 32.5759 384 43.6216V74C384 85.0457 375.046 94 364 94H21C9.95431 94 1 85.0457 1 74V43.6216C1 32.5759 9.95431 23.6216 21 23.6216H298.255Z" fill="white"/>
<path d="M288.25 1L288.798 0.16328C288.427 -0.0793757 287.941 -0.0491142 287.603 0.237639C287.265 0.524393 287.156 0.999255 287.335 1.40449L288.25 1ZM298.255 23.6216V24.6216C298.593 24.6216 298.909 24.4507 299.093 24.1673C299.278 23.8839 299.307 23.5264 299.17 23.2171L298.255 23.6216ZM322.813 23.6216L322.266 24.4583C322.429 24.5649 322.619 24.6216 322.813 24.6216V23.6216ZM287.335 1.40449L297.341 24.0261L299.17 23.2171L289.165 0.595511L287.335 1.40449ZM323.361 22.7849L288.798 0.16328L287.702 1.83672L322.266 24.4583L323.361 22.7849ZM322.813 24.6216H364V22.6216H322.813V24.6216ZM364 24.6216C374.493 24.6216 383 33.1282 383 43.6216H385C385 32.0236 375.598 22.6216 364 22.6216V24.6216ZM383 43.6216V74H385V43.6216H383ZM383 74C383 84.4934 374.493 93 364 93V95C375.598 95 385 85.598 385 74H383ZM364 93H21V95H364V93ZM21 93C10.5066 93 2 84.4934 2 74H0C0 85.598 9.40202 95 21 95V93ZM2 74V43.6216H0V74H2ZM2 43.6216C2 33.1282 10.5066 24.6216 21 24.6216V22.6216C9.40202 22.6216 0 32.0236 0 43.6216H2ZM21 24.6216H298.255V22.6216H21V24.6216Z" fill="#4E4E4E"/>
</g>
<path d="M128.658 57.4581V55.1781H116.268C116.688 52.0281 116.718 49.0581 116.748 46.6581H114.348C114.318 49.0281 114.348 52.0281 113.898 55.1781H102.468V57.4581H113.538C112.308 63.1281 109.308 68.8881 101.868 72.1281C102.498 72.5781 103.218 73.3581 103.548 73.9581C110.838 70.6281 114.078 64.8681 115.518 59.1081C117.888 65.9181 121.698 71.2281 127.458 73.9581C127.848 73.2981 128.598 72.3681 129.138 71.8581C123.348 69.4881 119.448 64.0581 117.348 57.4581H128.658ZM138.378 51.3381H158.688V55.1781H160.968V49.2681H149.568V46.6281H147.348V49.2681H136.188V55.1781H138.378V51.3381ZM158.868 57.2781C157.458 58.5381 155.298 60.0981 153.438 61.2681C152.658 59.7081 151.998 58.0281 151.518 56.2581H156.798V54.3381H140.028V56.2581H146.418C143.598 58.0881 139.638 59.5281 136.008 60.4281C136.368 60.8181 136.998 61.7481 137.238 62.1681C139.638 61.4481 142.248 60.4881 144.588 59.3181C145.098 59.7681 145.548 60.2181 145.968 60.6681C143.658 62.4381 139.428 64.3881 136.218 65.2881C136.638 65.7381 137.148 66.5181 137.418 67.0281C140.478 65.9181 144.468 63.8781 146.988 62.0181C147.408 62.6481 147.768 63.2781 148.038 63.9381C145.098 66.6981 139.668 69.5181 135.168 70.7481C135.588 71.2281 136.068 72.0681 136.338 72.6081C140.478 71.2281 145.428 68.5881 148.698 65.8881C149.298 68.4381 148.788 70.6281 147.708 71.4381C147.108 71.9481 146.448 72.0081 145.638 72.0081C144.978 72.0081 143.958 71.9781 142.848 71.8581C143.238 72.4581 143.418 73.3881 143.478 73.9881C144.438 74.0481 145.368 74.0781 146.088 74.0481C147.438 74.0481 148.278 73.8381 149.268 73.0581C152.208 71.0181 152.148 63.3081 146.418 58.3581C147.528 57.7281 148.578 57.0081 149.478 56.2581H149.538C151.398 63.3681 154.878 69.0681 160.548 71.6481C160.908 71.0481 161.568 70.1781 162.078 69.7281C158.838 68.4681 156.288 66.0681 154.368 62.9781C156.378 61.8081 158.778 60.2481 160.578 58.7481L158.868 57.2781ZM175.938 55.6581V52.0581H179.448C178.668 53.3181 177.768 54.5181 176.838 55.6581H175.938ZM179.808 65.2881H173.088V62.3781H179.808V65.2881ZM173.088 70.2381V67.0881H179.808V70.2381H173.088ZM181.758 47.6781C181.128 49.0881 180.468 50.4381 179.658 51.7281V50.0781H175.938V46.8681H173.838V50.0781H169.248V52.0581H173.838V55.6581H167.898V57.6381H175.008C172.758 59.8881 170.148 61.7481 167.238 63.1881C167.658 63.6381 168.378 64.5681 168.648 65.0181C169.458 64.5681 170.268 64.0881 171.018 63.5781V73.8681H173.088V72.0981H179.808V73.4481H181.938V60.5481H174.948C175.968 59.6481 176.898 58.6581 177.798 57.6381H183.288V55.6581H179.418C181.098 53.4381 182.598 50.9781 183.768 48.2481L181.758 47.6781ZM193.698 48.2181L193.338 48.3081H184.548V74.0181H186.738V50.4381H192.318C191.358 52.8381 189.948 56.0181 188.658 58.5681C191.808 61.1781 192.738 63.4281 192.738 65.3181C192.768 66.3981 192.528 67.2981 191.868 67.6581C191.478 67.8681 190.968 67.9881 190.458 68.0181C189.798 68.0781 188.898 68.0481 187.908 67.9581C188.298 68.5881 188.538 69.5181 188.568 70.1481C189.498 70.2081 190.548 70.2081 191.358 70.1181C192.108 70.0281 192.828 69.8181 193.368 69.4281C194.478 68.7381 194.928 67.3581 194.898 65.5281C194.898 63.3981 194.088 61.0581 190.938 58.2681C192.378 55.5081 194.028 52.0881 195.288 49.2681L193.698 48.2181ZM219.618 62.7681H226.368V60.6681H219.618V54.9381H217.398V60.6681H210.678V62.7681H217.398V71.1981H209.508V73.2981H227.538V71.1981H219.618V62.7681ZM212.088 51.2481C212.628 49.8981 213.138 48.5181 213.528 47.1681L211.248 46.5981C210.828 48.1281 210.288 49.7181 209.658 51.2481H201.468V53.3781H208.668C206.808 57.1881 204.168 60.7281 200.748 63.1581C201.108 63.6381 201.678 64.5681 201.888 65.1681C203.148 64.2681 204.318 63.2781 205.368 62.1381V73.8681H207.558V59.4981C208.968 57.5781 210.138 55.5381 211.188 53.3781H227.538V51.2481H212.088ZM253.608 56.8881H249.558V58.7181H253.608V66.3381H248.418V68.1681H261.018V66.3381H255.678V58.7181H259.968V56.8881H255.678V50.1381H260.418V48.2781H249.108V50.1381H253.608V56.8881ZM245.928 59.8281C245.928 62.9481 245.748 66.2781 245.178 67.0281C244.998 67.2381 244.788 67.3581 244.458 67.3581C243.978 67.4181 243.228 67.4181 242.328 67.3581C242.598 67.8981 242.808 68.6481 242.838 69.2781C243.738 69.3081 244.638 69.2781 245.298 69.1881C245.928 69.0981 246.378 68.8581 246.678 68.4381C247.668 67.1481 247.908 63.4881 247.908 59.9181C247.908 56.8581 247.728 54.0381 246.618 51.3681C247.518 50.0781 248.328 48.7281 248.958 47.3181L247.098 46.8081C246.708 47.7081 246.198 48.6081 245.658 49.4781C245.118 48.6081 244.458 47.7381 243.648 46.8981L242.148 47.9181C243.138 48.9681 243.858 50.0481 244.398 51.1881C243.318 52.5081 242.058 53.6781 240.768 54.5781C241.188 54.9381 241.908 55.6881 242.208 56.0481C243.228 55.2381 244.218 54.2781 245.178 53.1981C245.448 54.1281 245.628 55.0881 245.748 56.0781C244.608 58.2981 242.508 60.7581 240.738 62.0481C241.188 62.4081 241.728 63.0981 242.028 63.5481C243.318 62.4681 244.758 60.7881 245.928 59.1081V59.8281ZM241.698 50.5581C240.708 49.3881 238.518 47.9181 236.748 46.9881L235.278 48.3681C237.078 49.3581 239.178 50.9181 240.138 52.0881L241.698 50.5581ZM240.828 56.4081C239.688 55.2681 237.438 53.8281 235.578 52.9881L234.108 54.4281C235.998 55.3581 238.218 56.8581 239.298 57.9981L240.828 56.4081ZM240.018 60.4581H233.898V62.4681H237.918V68.2581C236.538 69.4881 234.948 70.7181 233.658 71.5881L234.768 73.6881C236.298 72.4281 237.768 71.1681 239.118 69.9081C241.008 72.1881 243.768 73.2381 247.638 73.3881C250.968 73.5081 257.298 73.4481 260.598 73.3281C260.718 72.6681 261.048 71.7081 261.318 71.1981C257.748 71.4381 250.908 71.4981 247.608 71.4081C244.128 71.2581 241.488 70.2681 240.018 68.0781V60.4581ZM279.498 64.4481H281.478L282.078 52.8081L282.138 49.2681H278.838L278.898 52.8081L279.498 64.4481ZM280.488 71.8581C281.538 71.8581 282.408 71.0781 282.408 69.8781C282.408 68.6781 281.538 67.8681 280.488 67.8681C279.438 67.8681 278.568 68.6781 278.568 69.8781C278.568 71.0781 279.408 71.8581 280.488 71.8581Z" fill="#4E4E4E"/>
<defs>
<filter id="filter0_d_362_7470" x="0" y="0" width="393" height="103" filterUnits="userSpaceOnUse" color-interpolation-filters="sRGB">
<feFlood flood-opacity="0" result="BackgroundImageFix"/>
<feColorMatrix in="SourceAlpha" type="matrix" values="0 0 0 0 0 0 0 0 0 0 0 0 0 0 0 0 0 0 127 0" result="hardAlpha"/>
<feOffset dx="4" dy="4"/>
<feGaussianBlur stdDeviation="2"/>
<feComposite in2="hardAlpha" operator="out"/>
<feColorMatrix type="matrix" values="0 0 0 0 0 0 0 0 0 0 0 0 0 0 0 0 0 0 0.4 0"/>
<feBlend mode="normal" in2="BackgroundImageFix" result="effect1_dropShadow_362_7470"/>
<feBlend mode="normal" in="SourceGraphic" in2="effect1_dropShadow_362_7470" result="shape"/>
</filter>
</defs>
</svg>
